952 2 0 1
1 -11000 -16000 0
2 10000 -16000 0
3 -11000 -2197.46 0
4 -10900 -2288.55 0
5 -10800 -2351.05 0
6 -10700 -2388.71 0
7 -10600 -2406.11 0
8 -10500 -2422.93 0
9 -10400 -2440.21 0
10 -10300 -2459.94 0
11 -10200 -2480.6 0
12 -10100 -2500.16 0
13 -10000 -2515.47 0
14 -9900 -2521.85 0
15 -9800 -2519.03 0
16 -9700 -2509.06 0
17 -9600 -2492.95 0
18 -9500 -2475.22 0
19 -9400 -2457.3 0
20 -9300 -2442.99 0
21 -9200 -2430.9 0
22 -9100 -2419.02 0
23 -9000 -2402.87 0
24 -8900 -2376.69 0
25 -8800 -2338.36 0
26 -8700 -2288.3 0
27 -8600 -2229.12 0
28 -8500 -2170.36 0
29 -8400 -2117.58 0
30 -8300 -2086.42 0
31 -8200 -2072.65 0
32 -8100 -2075.5 0
33 -8000 -2087.57 0
34 -7900 -2103.08 0
35 -7800 -2118.9 0
36 -7700 -2133.46 0
37 -7600 -2146.15 0
38 -7500 -2157.27 0
39 -7400 -2167.81 0
40 -7300 -2180.88 0
41 -7200 -2196.1 0
42 -7100 -2213.64 0
43 -7000 -2232.08 0
44 -6900 -2250.06 0
45 -6800 -2264.2 0
46 -6700 -2270.91 0
47 -6600 -2270.22 0
48 -6500 -2265.85 0
49 -6400 -2260.73 0
50 -6300 -2262.27 0
51 -6200 -2269.78 0
52 -6100 -2283.77 0
53 -6000 -2301.63 0
54 -5900 -2321.3 0
55 -5800 -2341.32 0
56 -5700 -2360.57 0
57 -5600 -2377.9 0
58 -5500 -2391.51 0
59 -5400 -2401.17 0
60 -5300 -2406.14 0
61 -5200 -2408.4 0
62 -5100 -2409.77 0
63 -5000 -2417.26 0
64 -4900 -2438.79 0
65 -4800 -2463.63 0
66 -4700 -2475.27 0
67 -4600 -2474.35 0
68 -4500 -2473.18 0
69 -4400 -2472.63 0
70 -4300 -2472.1 0
71 -4200 -2471.94 0
72 -4100 -2472.8 0
73 -4000 -2476.15 0
74 -3900 -2483.85 0
75 -3800 -2496.33 0
76 -3700 -2513.31 0
77 -3600 -2535.07 0
78 -3500 -2561.44 0
79 -3400 -2589.82 0
80 -3300 -2613.8 0
81 -3200 -2633.52 0
82 -3100 -2648.24 0
83 -3000 -2659.1 0
84 -2900 -2666.63 0
85 -2800 -2670.71 0
86 -2700 -2671.33 0
87 -2600 -2671.19 0
88 -2500 -2676.38 0
89 -2400 -2688.23 0
90 -2300 -2710.7 0
91 -2200 -2732.79 0
92 -2100 -2737.76 0
93 -2000 -2730.28 0
94 -1900 -2715.3 0
95 -1800 -2699.77 0
96 -1700 -2690.04 0
97 -1600 -2688.06 0
98 -1500 -2693.5 0
99 -1400 -2704.15 0
100 -1300 -2715.51 0
101 -1200 -2727.34 0
102 -1100 -2739.98 0
103 -1000 -2755.28 0
104 -900 -2775.59 0
105 -800 -2795.86 0
106 -700 -2809.41 0
107 -600 -2814.14 0
108 -500 -2809.94 0
109 -400 -2800.33 0
110 -300 -2793.31 0
111 -200 -2789.35 0
112 -100 -2790.29 0
113 0 -2790.82 0
114 100 -2785.27 0
115 200 -2775.99 0
116 300 -2768.06 0
117 400 -2765.63 0
118 500 -2774.9 0
119 600 -2794.95 0
120 700 -2825.17 0
121 800 -2860.97 0
122 900 -2898.63 0
123 1000 -2934.44 0
124 1100 -2965.03 0
125 1200 -2991.27 0
126 1300 -3015.63 0
127 1400 -3040.67 0
128 1500 -3070.79 0
129 1600 -3106.38 0
130 1700 -3149.5 0
131 1800 -3198 0
132 1900 -3251.14 0
133 2000 -3301.77 0
134 2100 -3342.67 0
135 2200 -3369.93 0
136 2300 -3382.34 0
137 2400 -3382.07 0
138 2500 -3375.36 0
139 2600 -3367.03 0
140 2700 -3368.08 0
141 2800 -3374 0
142 2900 -3380.49 0
143 3000 -3386.29 0
144 3100 -3390.81 0
145 3200 -3388.61 0
146 3300 -3374.08 0
147 3400 -3346.6 0
148 3500 -3309.4 0
149 3600 -3267.5 0
150 3700 -3231.42 0
151 3800 -3201.06 0
152 3900 -3178.55 0
153 4000 -3164.52 0
154 4100 -3161.37 0
155 4200 -3167.74 0
156 4300 -3180.72 0
157 4400 -3193.42 0
158 4500 -3193.88 0
159 4600 -3185.64 0
160 4700 -3177.24 0
161 4800 -3167.99 0
162 4900 -3155.98 0
163 5000 -3142.11 0
164 5100 -3126.91 0
165 5200 -3109.97 0
166 5300 -3091.3 0
167 5400 -3078.99 0
168 5500 -3087.93 0
169 5600 -3112.94 0
170 5700 -3142.85 0
171 5800 -3172.89 0
172 5900 -3196.51 0
173 6000 -3212.95 0
174 6100 -3220.5 0
175 6200 -3220.65 0
176 6300 -3215.76 0
177 6400 -3210.38 0
178 6500 -3212.15 0
179 6600 -3218.9 0
180 6700 -3226.46 0
181 6800 -3233.51 0
182 6900 -3237.87 0
183 7000 -3241.42 0
184 7100 -3245.87 0
185 7200 -3249 0
186 7300 -3248.23 0
187 7400 -3243.68 0
188 7500 -3236.73 0
189 7600 -3228.81 0
190 7700 -3222.95 0
191 7800 -3218.11 0
192 7900 -3213.6 0
193 8000 -3208.85 0
194 8100 -3203.51 0
195 8200 -3195.28 0
196 8300 -3182 0
197 8400 -3165.22 0
198 8500 -3149.05 0
199 8600 -3134.05 0
200 8700 -3121.77 0
201 8800 -3111.64 0
202 8900 -3104.31 0
203 9000 -3099.07 0
204 9100 -3095.85 0
205 9200 -3093.33 0
206 9300 -3090.27 0
207 9400 -3086.12 0
208 9500 -3080.44 0
209 9600 -3074.1 0
210 9700 -3068.81 0
211 9800 -3062.97 0
212 9900 -3053.62 0
213 10000 -3041.66 0
214 2857.46 -16000 0
215 2854.11 -15866.4 0
216 2850 -15732.7 0
217 2844.73 -15599.1 0
218 2838.23 -15465.4 0
219 2830.6 -15331.8 0
220 2822.07 -15198.1 0
221 2812.91 -15064.5 0
222 2803.41 -14930.8 0
223 2793.84 -14797.2 0
224 2784.45 -14663.5 0
225 2775.4 -14529.9 0
226 2766.82 -14396.2 0
227 2758.81 -14262.6 0
228 2751.37 -14128.9 0
229 2744.49 -13995.3 0
230 2738.13 -13861.6 0
231 2732.2 -13728 0
232 2726.6 -13594.3 0
233 2721.23 -13460.7 0
234 2715.97 -13327 0
235 2710.72 -13193.4 0
236 2705.38 -13059.7 0
237 2699.86 -12926.1 0
238 2694.09 -12792.4 0
239 2688.02 -12658.8 0
240 2681.6 -12525.1 0
241 2674.83 -12391.5 0
242 2667.69 -12257.8 0
243 2660.21 -12124.2 0
244 2652.39 -11990.5 0
245 2644.29 -11856.9 0
246 2635.92 -11723.2 0
247 2627.34 -11589.6 0
248 2618.58 -11455.9 0
249 2609.68 -11322.3 0
250 2600.68 -11188.6 0
251 2591.59 -11055 0
252 2582.42 -10921.3 0
253 2573.18 -10787.7 0
254 2563.85 -10654 0
255 2554.41 -10520.4 0
256 2544.81 -10386.7 0
257 2535 -10253.1 0
258 2524.91 -10119.4 0
259 2514.47 -9985.79 0
260 2503.59 -9852.14 0
261 2492.18 -9718.49 0
262 2480.13 -9584.84 0
263 2467.35 -9451.19 0
264 2453.74 -9317.54 0
265 2439.18 -9183.89 0
266 2423.59 -9050.24 0
267 2406.88 -8916.59 0
268 2388.96 -8782.95 0
269 2369.76 -8649.3 0
270 2349.22 -8515.65 0
271 2327.28 -8382 0
272 2303.9 -8248.35 0
273 2279.05 -8114.7 0
274 2252.7 -7981.05 0
275 2224.84 -7847.4 0
276 2195.47 -7713.75 0
277 2164.57 -7580.1 0
278 2132.15 -7446.45 0
279 2098.2 -7312.8 0
280 2062.7 -7179.16 0
281 2025.66 -7045.51 0
282 1987.02 -6911.86 0
283 1946.76 -6778.21 0
284 1904.82 -6644.56 0
285 1861.1 -6510.91 0
286 1815.52 -6377.26 0
287 1767.94 -6243.61 0
288 1718.22 -6109.96 0
289 1666.19 -5976.31 0
290 1611.64 -5842.66 0
291 1554.35 -5709.01 0
292 1494.09 -5575.37 0
293 1430.61 -5441.72 0
294 1363.63 -5308.07 0
295 1292.87 -5174.42 0
296 1218.07 -5040.77 0
297 1138.95 -4907.12 0
298 1055.24 -4773.47 0
299 966.694 -4639.82 0
300 873.069 -4506.17 0
301 774.148 -4372.52 0
302 669.728 -4238.87 0
303 559.618 -4105.22 0
304 443.628 -3971.58 0
305 321.555 -3837.93 0
306 193.157 -3704.28 0
307 58.1259 -3570.63 0
308 -83.96 -3436.98 0
309 -233.69 -3303.33 0
310 -391.891 -3169.68 0
311 -559.72 -3036.03 0
312 -738.77 -2902.38 0
313 2460.21 -12124.2 0
314 2452.39 -11990.5 0
315 2444.29 -11856.9 0
316 2435.92 -11723.2 0
317 2427.34 -11589.6 0
318 2418.58 -11455.9 0
319 2409.68 -11322.3 0
320 2400.68 -11188.6 0
321 2391.59 -11055 0
322 2382.42 -10921.3 0
323 2373.18 -10787.7 0
324 2363.85 -10654 0
325 2354.41 -10520.4 0
326 2344.81 -10386.7 0
327 2335 -10253.1 0
328 2324.91 -10119.4 0
329 2314.47 -9985.79 0
330 2303.59 -9852.14 0
331 2292.18 -9718.49 0
332 2280.13 -9584.84 0
333 2267.35 -9451.19 0
334 2253.74 -9317.54 0
335 2239.18 -9183.89 0
336 2223.59 -9050.24 0
337 2206.88 -8916.59 0
338 2188.96 -8782.95 0
339 2169.76 -8649.3 0
340 2149.22 -8515.65 0
341 2127.28 -8382 0
342 2103.9 -8248.35 0
343 2079.05 -8114.7 0
344 2052.7 -7981.05 0
345 2024.84 -7847.4 0
346 1995.47 -7713.75 0
347 1964.57 -7580.1 0
348 1932.15 -7446.45 0
349 1898.2 -7312.8 0
350 1862.7 -7179.16 0
351 1825.66 -7045.51 0
352 1787.02 -6911.86 0
353 1746.76 -6778.21 0
354 1704.82 -6644.56 0
355 1661.1 -6510.91 0
356 1615.52 -6377.26 0
357 1567.94 -6243.61 0
358 1518.22 -6109.96 0
359 1466.19 -5976.31 0
360 1411.64 -5842.66 0
361 1354.35 -5709.01 0
362 1294.09 -5575.37 0
363 1230.61 -5441.72 0
364 1163.63 -5308.07 0
365 1092.87 -5174.42 0
366 1018.07 -5040.77 0
367 938.953 -4907.12 0
368 855.243 -4773.47 0
369 766.694 -4639.82 0
370 673.069 -4506.17 0
371 574.148 -4372.52 0
372 469.728 -4238.87 0
373 359.618 -4105.22 0
374 243.628 -3971.58 0
375 121.555 -3837.93 0
376 -6.84296 -3704.28 0
377 -141.874 -3570.63 0
378 -283.96 -3436.98 0
379 -433.69 -3303.33 0
380 -591.891 -3169.68 0
381 -759.72 -3036.03 0
382 -938.77 -2902.38 0
383 2907.49 -16000 0
384 2904.13 -15866.6 0
385 2900.04 -15733.2 0
386 2894.82 -15599.8 0
387 2888.36 -15466.4 0
388 2880.78 -15333.1 0
389 2872.29 -15199.7 0
390 2863.16 -15066.3 0
391 2853.69 -14932.9 0
392 2844.13 -14799.5 0
393 2834.74 -14666.1 0
394 2825.69 -14532.7 0
395 2817.11 -14399.3 0
396 2809.09 -14265.9 0
397 2801.64 -14132.6 0
398 2794.75 -13999.2 0
399 2788.38 -13865.8 0
400 2782.44 -13732.4 0
401 2776.84 -13599 0
402 2771.47 -13465.6 0
403 2766.22 -13332.2 0
404 2760.98 -13198.8 0
405 2755.66 -13065.4 0
406 2750.16 -12932.1 0
407 2744.42 -12798.7 0
408 2738.38 -12665.3 0
409 2732 -12531.9 0
410 2725.26 -12398.5 0
411 2718.17 -12265.1 0
412 2710.72 -12131.7 0
413 2702.94 -11998.3 0
414 2694.87 -11864.9 0
415 2686.54 -11731.6 0
416 2678 -11598.2 0
417 2669.27 -11464.8 0
418 2660.4 -11331.4 0
419 2651.43 -11198 0
420 2642.36 -11064.6 0
421 2633.22 -10931.2 0
422 2624.01 -10797.8 0
423 2614.71 -10664.4 0
424 2605.3 -10531.1 0
425 2595.74 -10397.7 0
426 2585.97 -10264.3 0
427 2575.94 -10130.9 0
428 2565.56 -9997.5 0
429 2554.76 -9864.11 0
430 2543.44 -9730.72 0
431 2531.5 -9597.33 0
432 2518.84 -9463.94 0
433 2505.37 -9330.55 0
434 2490.98 -9197.16 0
435 2475.58 -9063.78 0
436 2459.07 -8930.39 0
437 2441.38 -8797 0
438 2422.42 -8663.61 0
439 2402.14 -8530.22 0
440 2380.49 -8396.83 0
441 2357.41 -8263.44 0
442 2332.87 -8130.05 0
443 2306.86 -7996.66 0
444 2279.34 -7863.28 0
445 2250.33 -7729.89 0
446 2219.8 -7596.5 0
447 2187.77 -7463.11 0
448 2154.21 -7329.72 0
449 2119.13 -7196.33 0
450 2082.51 -7062.94 0
451 2044.33 -6929.55 0
452 2004.54 -6796.16 0
453 1963.1 -6662.78 0
454 1919.92 -6529.39 0
455 1874.92 -6396 0
456 1827.98 -6262.61 0
457 1778.95 -6129.22 0
458 1727.68 -5995.83 0
459 1673.98 -5862.44 0
460 1617.64 -5729.05 0
461 1558.42 -5595.66 0
462 1496.09 -5462.28 0
463 1430.39 -5328.89 0
464 1361.04 -5195.5 0
465 1287.79 -5062.11 0
466 1210.36 -4928.72 0
467 1128.48 -4795.33 0
468 1041.91 -4661.94 0
469 950.403 -4528.55 0
470 853.747 -4395.16 0
471 751.734 -4261.77 0
472 644.173 -4128.39 0
473 530.877 -3995 0
474 411.654 -3861.61 0
475 286.285 -3728.22 0
476 154.498 -3594.83 0
477 15.9314 -3461.44 0
478 -129.912 -3328.05 0
479 -283.726 -3194.66 0
480 -446.481 -3061.27 0
481 -619.512 -2927.89 0
482 3107.49 -16000 0
483 3104.13 -15866.6 0
484 3100.04 -15733.2 0
485 3094.82 -15599.8 0
486 3088.36 -15466.4 0
487 3080.78 -15333.1 0
488 3072.29 -15199.7 0
489 3063.16 -15066.3 0
490 3053.69 -14932.9 0
491 3044.13 -14799.5 0
492 3034.74 -14666.1 0
493 3025.69 -14532.7 0
494 3017.11 -14399.3 0
495 3009.09 -14265.9 0
496 3001.64 -14132.6 0
497 2994.75 -13999.2 0
498 2988.38 -13865.8 0
499 2982.44 -13732.4 0
500 2976.84 -13599 0
501 2971.47 -13465.6 0
502 2966.22 -13332.2 0
503 2960.98 -13198.8 0
504 2955.66 -13065.4 0
505 2950.16 -12932.1 0
506 2944.42 -12798.7 0
507 2938.38 -12665.3 0
508 2932 -12531.9 0
509 2925.26 -12398.5 0
510 2918.17 -12265.1 0
511 2910.72 -12131.7 0
512 2902.94 -11998.3 0
513 2894.87 -11864.9 0
514 2886.54 -11731.6 0
515 2878 -11598.2 0
516 2869.27 -11464.8 0
517 2860.4 -11331.4 0
518 2851.43 -11198 0
519 2842.36 -11064.6 0
520 2833.22 -10931.2 0
521 2824.01 -10797.8 0
522 2814.71 -10664.4 0
523 2805.3 -10531.1 0
524 2795.74 -10397.7 0
525 2785.97 -10264.3 0
526 2775.94 -10130.9 0
527 2765.56 -9997.5 0
528 2754.76 -9864.11 0
529 2743.44 -9730.72 0
530 2731.5 -9597.33 0
531 2718.84 -9463.94 0
532 2705.37 -9330.55 0
533 2690.98 -9197.16 0
534 2675.58 -9063.78 0
535 2659.07 -8930.39 0
536 2641.38 -8797 0
537 2622.42 -8663.61 0
538 2602.14 -8530.22 0
539 2580.49 -8396.83 0
540 2557.41 -8263.44 0
541 2532.87 -8130.05 0
542 2506.86 -7996.66 0
543 2479.34 -7863.28 0
544 2450.33 -7729.89 0
545 2419.8 -7596.5 0
546 2387.77 -7463.11 0
547 2354.21 -7329.72 0
548 2319.13 -7196.33 0
549 2282.51 -7062.94 0
550 2244.33 -6929.55 0
551 2204.54 -6796.16 0
552 2163.1 -6662.78 0
553 2119.92 -6529.39 0
554 2074.92 -6396 0
555 2027.98 -6262.61 0
556 1978.95 -6129.22 0
557 1927.68 -5995.83 0
558 1873.98 -5862.44 0
559 1817.64 -5729.05 0
560 1758.42 -5595.66 0
561 1696.09 -5462.28 0
562 1630.39 -5328.89 0
563 1561.04 -5195.5 0
564 1487.79 -5062.11 0
565 1410.36 -4928.72 0
566 1328.48 -4795.33 0
567 1241.91 -4661.94 0
568 1150.4 -4528.55 0
569 1053.75 -4395.16 0
570 951.734 -4261.77 0
571 844.173 -4128.39 0
572 730.877 -3995 0
573 611.654 -3861.61 0
574 486.285 -3728.22 0
575 354.498 -3594.83 0
576 215.931 -3461.44 0
577 70.0883 -3328.05 0
578 -83.7262 -3194.66 0
579 -246.481 -3061.27 0
580 -419.512 -2927.89 0
581 2696.6 -15000 0
582 2633.91 -14872.6 0
583 2569.38 -14745.2 0
584 2503.9 -14617.9 0
585 2438.16 -14490.5 0
586 2372.63 -14363.1 0
587 2307.61 -14235.7 0
588 2243.24 -14108.4 0
589 2179.52 -13981 0
590 2116.35 -13853.6 0
591 2053.55 -13726.2 0
592 1990.89 -13598.8 0
593 1928.09 -13471.5 0
594 1864.9 -13344.1 0
595 1801.03 -13216.7 0
596 1736.24 -13089.3 0
597 1670.32 -12962 0
598 1603.07 -12834.6 0
599 1534.37 -12707.2 0
600 1464.11 -12579.8 0
601 1392.25 -12452.4 0
602 1318.76 -12325.1 0
603 1243.67 -12197.7 0
604 1167.04 -12070.3 0
605 1088.95 -11942.9 0
606 1009.48 -11815.6 0
607 928.752 -11688.2 0
608 846.872 -11560.8 0
609 763.954 -11433.4 0
610 680.098 -11306.1 0
611 595.397 -11178.7 0
612 509.924 -11051.3 0
613 423.732 -10923.9 0
614 336.853 -10796.5 0
615 249.294 -10669.2 0
616 161.04 -10541.8 0
617 72.0497 -10414.4 0
618 -17.737 -10287 0
619 -108.401 -10159.7 0
620 -200.04 -10032.3 0
621 -292.764 -9904.9 0
622 -386.692 -9777.52 0
623 -481.948 -9650.14 0
624 -578.656 -9522.76 0
625 -676.938 -9395.39 0
626 -776.907 -9268.01 0
627 -878.664 -9140.63 0
628 -982.295 -9013.25 0
629 -1087.87 -8885.88 0
630 -1195.44 -8758.5 0
631 -1305.02 -8631.12 0
632 -1416.63 -8503.74 0
633 -1530.24 -8376.37 0
634 -1645.82 -8248.99 0
635 -1763.31 -8121.61 0
636 -1882.62 -7994.23 0
637 -2003.66 -7866.86 0
638 -2126.34 -7739.48 0
639 -2250.53 -7612.1 0
640 -2376.12 -7484.72 0
641 -2503 -7357.35 0
642 -2631.05 -7229.97 0
643 -2760.17 -7102.59 0
644 -2890.29 -6975.21 0
645 -3021.32 -6847.84 0
646 -3153.24 -6720.46 0
647 -3286.03 -6593.08 0
648 -3419.7 -6465.7 0
649 -3554.28 -6338.33 0
650 -3689.86 -6210.95 0
651 -3826.53 -6083.57 0
652 -3964.44 -5956.19 0
653 -4103.74 -5828.82 0
654 -4244.61 -5701.44 0
655 -4387.26 -5574.06 0
656 -4531.92 -5446.68 0
657 -4678.8 -5319.3 0
658 -4828.14 -5191.93 0
659 -4980.16 -5064.55 0
660 -5135.09 -4937.17 0
661 -5293.11 -4809.79 0
662 -5454.4 -4682.42 0
663 -5619.11 -4555.04 0
664 -5787.35 -4427.66 0
665 -5959.19 -4300.28 0
666 -6134.66 -4172.91 0
667 -6313.76 -4045.53 0
668 -6496.46 -3918.15 0
669 -6682.69 -3790.77 0
670 -6872.36 -3663.4 0
671 -7065.36 -3536.02 0
672 -7261.6 -3408.64 0
673 -7460.99 -3281.26 0
674 -7663.49 -3153.89 0
675 -7869.07 -3026.51 0
676 -8077.82 -2899.13 0
677 -8289.86 -2771.75 0
678 -8505.45 -2644.38 0
679 -8724.9 -2517 0
680 2496.6 -15000 0
681 2433.91 -14872.6 0
682 2369.38 -14745.2 0
683 2303.9 -14617.9 0
684 2238.16 -14490.5 0
685 2172.63 -14363.1 0
686 2107.61 -14235.7 0
687 2043.24 -14108.4 0
688 1979.52 -13981 0
689 1916.35 -13853.6 0
690 1853.55 -13726.2 0
691 1790.89 -13598.8 0
692 1728.09 -13471.5 0
693 1664.9 -13344.1 0
694 1601.03 -13216.7 0
695 1536.24 -13089.3 0
696 1470.32 -12962 0
697 1403.07 -12834.6 0
698 1334.37 -12707.2 0
699 1264.11 -12579.8 0
700 1192.25 -12452.4 0
701 1118.76 -12325.1 0
702 1043.67 -12197.7 0
703 967.043 -12070.3 0
704 888.947 -11942.9 0
705 809.481 -11815.6 0
706 728.752 -11688.2 0
707 646.872 -11560.8 0
708 563.954 -11433.4 0
709 480.098 -11306.1 0
710 395.397 -11178.7 0
711 309.924 -11051.3 0
712 223.732 -10923.9 0
713 136.853 -10796.5 0
714 49.2943 -10669.2 0
715 -38.9603 -10541.8 0
716 -127.95 -10414.4 0
717 -217.737 -10287 0
718 -308.401 -10159.7 0
719 -400.04 -10032.3 0
720 -492.764 -9904.9 0
721 -586.692 -9777.52 0
722 -681.948 -9650.14 0
723 -778.656 -9522.76 0
724 -876.938 -9395.39 0
725 -976.907 -9268.01 0
726 -1078.66 -9140.63 0
727 -1182.3 -9013.25 0
728 -1287.87 -8885.88 0
729 -1395.44 -8758.5 0
730 -1505.02 -8631.12 0
731 -1616.63 -8503.74 0
732 -1730.24 -8376.37 0
733 -1845.82 -8248.99 0
734 -1963.31 -8121.61 0
735 -2082.62 -7994.23 0
736 -2203.66 -7866.86 0
737 -2326.34 -7739.48 0
738 -2450.53 -7612.1 0
739 -2576.12 -7484.72 0
740 -2703 -7357.35 0
741 -2831.05 -7229.97 0
742 -2960.17 -7102.59 0
743 -3090.29 -6975.21 0
744 -3221.32 -6847.84 0
745 -3353.24 -6720.46 0
746 -3486.03 -6593.08 0
747 -3619.7 -6465.7 0
748 -3754.28 -6338.33 0
749 -3889.86 -6210.95 0
750 -4026.53 -6083.57 0
751 -4164.44 -5956.19 0
752 -4303.74 -5828.82 0
753 -4444.61 -5701.44 0
754 -4587.26 -5574.06 0
755 -4731.92 -5446.68 0
756 -4878.8 -5319.3 0
757 -5028.14 -5191.93 0
758 -5180.16 -5064.55 0
759 -5335.09 -4937.17 0
760 -5493.11 -4809.79 0
761 -5654.4 -4682.42 0
762 -5819.11 -4555.04 0
763 -5987.35 -4427.66 0
764 -6159.19 -4300.28 0
765 -6334.66 -4172.91 0
766 -6513.76 -4045.53 0
767 -6696.46 -3918.15 0
768 -6882.69 -3790.77 0
769 -7072.36 -3663.4 0
770 -7265.36 -3536.02 0
771 -7461.6 -3408.64 0
772 -7660.99 -3281.26 0
773 -7863.49 -3153.89 0
774 -8069.07 -3026.51 0
775 -8277.82 -2899.13 0
776 -8489.86 -2771.75 0
777 -8705.45 -2644.38 0
778 -8924.9 -2517 0
779 1957.86 -13418.9 0
780 1895.43 -13293.3 0
781 1832.31 -13167.8 0
782 1768.24 -13042.2 0
783 1703.04 -12916.7 0
784 1636.53 -12791.1 0
785 1568.59 -12665.6 0
786 1499.14 -12540 0
787 1428.12 -12414.4 0
788 1355.54 -12288.9 0
789 1281.4 -12163.3 0
790 1205.78 -12037.8 0
791 1128.74 -11912.2 0
792 1050.37 -11786.7 0
793 970.782 -11661.1 0
794 890.08 -11535.5 0
795 808.369 -11410 0
796 725.746 -11284.4 0
797 642.3 -11158.9 0
798 558.101 -11033.3 0
799 473.202 -10907.8 0
800 387.634 -10782.2 0
801 301.407 -10656.7 0
802 214.507 -10531.1 0
803 126.9 -10405.5 0
804 38.5312 -10280 0
805 -50.6744 -10154.4 0
806 -140.807 -10028.9 0
807 -231.968 -9903.32 0
808 -324.272 -9777.77 0
809 -417.834 -9652.21 0
810 -512.774 -9526.65 0
811 -609.208 -9401.1 0
812 -707.247 -9275.54 0
813 -806.991 -9149.99 0
814 -908.527 -9024.43 0
815 -1011.93 -8898.87 0
816 -1117.24 -8773.32 0
817 -1224.5 -8647.76 0
818 -1333.73 -8522.21 0
819 -1444.91 -8396.65 0
820 -1558.01 -8271.09 0
821 -1672.99 -8145.54 0
822 -1789.78 -8019.98 0
823 -1908.29 -7894.43 0
824 -2028.43 -7768.87 0
825 -2150.09 -7643.32 0
826 -2273.17 -7517.76 0
827 -2397.56 -7392.2 0
828 -2523.14 -7266.65 0
829 -2649.82 -7141.09 0
830 -2777.5 -7015.54 0
831 -2906.12 -6889.98 0
832 -3035.62 -6764.42 0
833 -3165.96 -6638.87 0
834 -3297.15 -6513.31 0
835 -3429.2 -6387.76 0
836 -3562.17 -6262.2 0
837 -3696.12 -6136.65 0
838 -3831.18 -6011.09 0
839 -3967.48 -5885.53 0
840 -4105.17 -5759.98 0
841 -4244.43 -5634.42 0
842 -4385.47 -5508.87 0
843 -4528.5 -5383.31 0
844 -4673.73 -5257.75 0
845 -4821.38 -5132.2 0
846 -4971.68 -5006.64 0
847 -5124.81 -4881.09 0
848 -5280.97 -4755.53 0
849 -5440.32 -4629.97 0
850 -5603 -4504.42 0
851 -5769.1 -4378.86 0
852 -5938.69 -4253.31 0
853 -6111.81 -4127.75 0
854 -6288.46 -4002.2 0
855 -6468.58 -3876.64 0
856 -6652.13 -3751.08 0
857 -6839.02 -3625.53 0
858 -7029.14 -3499.97 0
859 -7222.41 -3374.42 0
860 -7418.73 -3248.86 0
861 -7618.07 -3123.3 0
862 -7820.41 -2997.75 0
863 -8025.8 -2872.19 0
864 -8234.37 -2746.64 0
865 -8446.33 -2621.08 0
866 -8662 -2495.53 0
867 1481.4 -12163.3 0
868 1405.78 -12037.8 0
869 1328.74 -11912.2 0
870 1250.37 -11786.7 0
871 1170.78 -11661.1 0
872 1090.08 -11535.5 0
873 1008.37 -11410 0
874 925.746 -11284.4 0
875 842.3 -11158.9 0
876 758.101 -11033.3 0
877 673.202 -10907.8 0
878 587.634 -10782.2 0
879 501.407 -10656.7 0
880 414.507 -10531.1 0
881 326.9 -10405.5 0
882 238.531 -10280 0
883 149.326 -10154.4 0
884 59.1933 -10028.9 0
885 -31.9685 -9903.32 0
886 -124.272 -9777.77 0
887 -217.834 -9652.21 0
888 -312.774 -9526.65 0
889 -409.208 -9401.1 0
890 -507.247 -9275.54 0
891 -606.991 -9149.99 0
892 -708.527 -9024.43 0
893 -811.925 -8898.87 0
894 -917.24 -8773.32 0
895 -1024.5 -8647.76 0
896 -1133.73 -8522.21 0
897 -1244.91 -8396.65 0
898 -1358.01 -8271.09 0
899 -1472.99 -8145.54 0
900 -1589.78 -8019.98 0
901 -1708.29 -7894.43 0
902 -1828.43 -7768.87 0
903 -1950.09 -7643.32 0
904 -2073.17 -7517.76 0
905 -2197.56 -7392.2 0
906 -2323.14 -7266.65 0
907 -2449.82 -7141.09 0
908 -2577.5 -7015.54 0
909 -2706.12 -6889.98 0
910 -2835.62 -6764.42 0
911 -2965.96 -6638.87 0
912 -3097.15 -6513.31 0
913 -3229.2 -6387.76 0
914 -3362.17 -6262.2 0
915 -3496.12 -6136.65 0
916 -3631.18 -6011.09 0
917 -3767.48 -5885.53 0
918 -3905.17 -5759.98 0
919 -4044.43 -5634.42 0
920 -4185.47 -5508.87 0
921 -4328.5 -5383.31 0
922 -4473.73 -5257.75 0
923 -4621.38 -5132.2 0
924 -4771.68 -5006.64 0
925 -4924.81 -4881.09 0
926 -5080.97 -4755.53 0
927 -5240.32 -4629.97 0
928 -5403 -4504.42 0
929 -5569.1 -4378.86 0
930 -5738.69 -4253.31 0
931 -5911.81 -4127.75 0
932 -6088.46 -4002.2 0
933 -6268.58 -3876.64 0
934 -6452.13 -3751.08 0
935 -6639.02 -3625.53 0
936 -6829.14 -3499.97 0
937 -7022.41 -3374.42 0
938 -7218.73 -3248.86 0
939 -7418.07 -3123.3 0
940 -7620.41 -2997.75 0
941 -7825.8 -2872.19 0
942 -8034.37 -2746.64 0
943 -8246.33 -2621.08 0
944 -8462 -2495.53 0
945 -6600.6 -10540.1 0
946 -750 -9507.3 0
947 -660 -9383 0
948 -590 -9217.4 0
949 584.5 -8510.3 0
950 2371.9 -8446.1 0
951 2580 -8519.2 0
952 3484.8 -8422.9 0
951 1
1 3 4 6
2 4 5 6
3 5 6 6
4 6 7 6
5 7 8 6
6 8 9 6
7 9 10 6
8 10 11 6
9 11 12 6
10 12 13 6
11 13 14 6
12 14 15 6
13 15 16 6
14 16 17 6
15 17 18 6
16 18 19 6
17 19 20 6
18 20 21 6
19 21 22 6
20 22 23 6
21 23 24 6
22 24 25 6
23 25 26 6
24 26 27 6
25 27 28 6
26 28 29 6
27 29 30 6
28 30 31 6
29 31 32 6
30 32 33 6
31 33 34 6
32 34 35 6
33 35 36 6
34 36 37 6
35 37 38 6
36 38 39 6
37 39 40 6
38 40 41 6
39 41 42 6
40 42 43 6
41 43 44 6
42 44 45 6
43 45 46 6
44 46 47 6
45 47 48 6
46 48 49 6
47 49 50 6
48 50 51 6
49 51 52 6
50 52 53 6
51 53 54 6
52 54 55 6
53 55 56 6
54 56 57 6
55 57 58 6
56 58 59 6
57 59 60 6
58 60 61 6
59 61 62 6
60 62 63 6
61 63 64 6
62 64 65 6
63 65 66 6
64 66 67 6
65 67 68 6
66 68 69 6
67 69 70 6
68 70 71 6
69 71 72 6
70 72 73 6
71 73 74 6
72 74 75 6
73 75 76 6
74 76 77 6
75 77 78 6
76 78 79 6
77 79 80 6
78 80 81 6
79 81 82 6
80 82 83 6
81 83 84 6
82 84 85 6
83 85 86 6
84 86 87 6
85 87 88 6
86 88 89 6
87 89 90 6
88 90 91 6
89 91 92 6
90 92 93 6
91 93 94 6
92 94 95 6
93 95 96 6
94 96 97 6
95 97 98 6
96 98 99 6
97 99 100 6
98 100 101 6
99 101 102 6
100 102 103 6
101 103 104 6
102 104 105 6
103 105 106 6
104 106 107 6
105 107 108 6
106 108 109 6
107 109 110 6
108 110 111 6
109 111 112 6
110 112 113 6
111 113 114 6
112 114 115 6
113 115 116 6
114 116 117 6
115 117 118 6
116 118 119 6
117 119 120 6
118 120 121 6
119 121 122 6
120 122 123 6
121 123 124 6
122 124 125 6
123 125 126 6
124 126 127 6
125 127 128 6
126 128 129 6
127 129 130 6
128 130 131 6
129 131 132 6
130 132 133 6
131 133 134 6
132 134 135 6
133 135 136 6
134 136 137 6
135 137 138 6
136 138 139 6
137 139 140 6
138 140 141 6
139 141 142 6
140 142 143 6
141 143 144 6
142 144 145 6
143 145 146 6
144 146 147 6
145 147 148 6
146 148 149 6
147 149 150 6
148 150 151 6
149 151 152 6
150 152 153 6
151 153 154 6
152 154 155 6
153 155 156 6
154 156 157 6
155 157 158 6
156 158 159 6
157 159 160 6
158 160 161 6
159 161 162 6
160 162 163 6
161 163 164 6
162 164 165 6
163 165 166 6
164 166 167 6
165 167 168 6
166 168 169 6
167 169 170 6
168 170 171 6
169 171 172 6
170 172 173 6
171 173 174 6
172 174 175 6
173 175 176 6
174 176 177 6
175 177 178 6
176 178 179 6
177 179 180 6
178 180 181 6
179 181 182 6
180 182 183 6
181 183 184 6
182 184 185 6
183 185 186 6
184 186 187 6
185 187 188 6
186 188 189 6
187 189 190 6
188 190 191 6
189 191 192 6
190 192 193 6
191 193 194 6
192 194 195 6
193 195 196 6
194 196 197 6
195 197 198 6
196 198 199 6
197 199 200 6
198 200 201 6
199 201 202 6
200 202 203 6
201 203 204 6
202 204 205 6
203 205 206 6
204 206 207 6
205 207 208 6
206 208 209 6
207 209 210 6
208 210 211 6
209 211 212 6
210 212 213 6
211 214 215 0
212 215 216 0
213 216 217 0
214 217 218 0
215 218 219 0
216 219 220 0
217 220 221 0
218 221 222 0
219 222 223 0
220 223 224 0
221 224 225 0
222 225 226 0
223 226 227 0
224 227 228 0
225 228 229 0
226 229 230 0
227 230 231 0
228 231 232 0
229 232 233 0
230 233 234 0
231 234 235 0
232 235 236 0
233 236 237 0
234 237 238 0
235 238 239 0
236 239 240 0
237 240 241 0
238 241 242 0
239 242 243 0
240 243 244 0
241 244 245 0
242 245 246 0
243 246 247 0
244 247 248 0
245 248 249 0
246 249 250 0
247 250 251 0
248 251 252 0
249 252 253 0
250 253 254 0
251 254 255 0
252 255 256 0
253 256 257 0
254 257 258 0
255 258 259 0
256 259 260 0
257 260 261 0
258 261 262 0
259 262 263 0
260 263 264 0
261 264 265 0
262 265 266 0
263 266 267 0
264 267 268 0
265 268 269 0
266 269 270 0
267 270 271 0
268 271 272 0
269 272 273 0
270 273 274 0
271 274 275 0
272 275 276 0
273 276 277 0
274 277 278 0
275 278 279 0
276 279 280 0
277 280 281 0
278 281 282 0
279 282 283 0
280 283 284 0
281 284 285 0
282 285 286 0
283 286 287 0
284 287 288 0
285 288 289 0
286 289 290 0
287 290 291 0
288 291 292 0
289 292 293 0
290 293 294 0
291 294 295 0
292 295 296 0
293 296 297 0
294 297 298 0
295 298 299 0
296 299 300 0
297 300 301 0
298 301 302 0
299 302 303 0
300 303 304 0
301 304 305 0
302 305 306 0
303 306 307 0
304 307 308 0
305 308 309 0
306 309 310 0
307 310 311 0
308 311 312 0
309 313 314 0
310 314 315 0
311 315 316 0
312 316 317 0
313 317 318 0
314 318 319 0
315 319 320 0
316 320 321 0
317 321 322 0
318 322 323 0
319 323 324 0
320 324 325 0
321 325 326 0
322 326 327 0
323 327 328 0
324 328 329 0
325 329 330 0
326 330 331 0
327 331 332 0
328 332 333 0
329 333 334 0
330 334 335 0
331 335 336 0
332 336 337 0
333 337 338 0
334 338 339 0
335 339 340 0
336 340 341 0
337 341 342 0
338 342 343 0
339 343 344 0
340 344 345 0
341 345 346 0
342 346 347 0
343 347 348 0
344 348 349 0
345 349 350 0
346 350 351 0
347 351 352 0
348 352 353 0
349 353 354 0
350 354 355 0
351 355 356 0
352 356 357 0
353 357 358 0
354 358 359 0
355 359 360 0
356 360 361 0
357 361 362 0
358 362 363 0
359 363 364 0
360 364 365 0
361 365 366 0
362 366 367 0
363 367 368 0
364 368 369 0
365 369 370 0
366 370 371 0
367 371 372 0
368 372 373 0
369 373 374 0
370 374 375 0
371 375 376 0
372 376 377 0
373 377 378 0
374 378 379 0
375 379 380 0
376 380 381 0
377 381 382 0
378 383 384 0
379 384 385 0
380 385 386 0
381 386 387 0
382 387 388 0
383 388 389 0
384 389 390 0
385 390 391 0
386 391 392 0
387 392 393 0
388 393 394 0
389 394 395 0
390 395 396 0
391 396 397 0
392 397 398 0
393 398 399 0
394 399 400 0
395 400 401 0
396 401 402 0
397 402 403 0
398 403 404 0
399 404 405 0
400 405 406 0
401 406 407 0
402 407 408 0
403 408 409 0
404 409 410 0
405 410 411 0
406 411 412 0
407 412 413 0
408 413 414 0
409 414 415 0
410 415 416 0
411 416 417 0
412 417 418 0
413 418 419 0
414 419 420 0
415 420 421 0
416 421 422 0
417 422 423 0
418 423 424 0
419 424 425 0
420 425 426 0
421 426 427 0
422 427 428 0
423 428 429 0
424 429 430 0
425 430 431 0
426 431 432 0
427 432 433 0
428 433 434 0
429 434 435 0
430 435 436 0
431 436 437 0
432 437 438 0
433 438 439 0
434 439 440 0
435 440 441 0
436 441 442 0
437 442 443 0
438 443 444 0
439 444 445 0
440 445 446 0
441 446 447 0
442 447 448 0
443 448 449 0
444 449 450 0
445 450 451 0
446 451 452 0
447 452 453 0
448 453 454 0
449 454 455 0
450 455 456 0
451 456 457 0
452 457 458 0
453 458 459 0
454 459 460 0
455 460 461 0
456 461 462 0
457 462 463 0
458 463 464 0
459 464 465 0
460 465 466 0
461 466 467 0
462 467 468 0
463 468 469 0
464 469 470 0
465 470 471 0
466 471 472 0
467 472 473 0
468 473 474 0
469 474 475 0
470 475 476 0
471 476 477 0
472 477 478 0
473 478 479 0
474 479 480 0
475 480 481 0
476 482 483 0
477 483 484 0
478 484 485 0
479 485 486 0
480 486 487 0
481 487 488 0
482 488 489 0
483 489 490 0
484 490 491 0
485 491 492 0
486 492 493 0
487 493 494 0
488 494 495 0
489 495 496 0
490 496 497 0
491 497 498 0
492 498 499 0
493 499 500 0
494 500 501 0
495 501 502 0
496 502 503 0
497 503 504 0
498 504 505 0
499 505 506 0
500 506 507 0
501 507 508 0
502 508 509 0
503 509 510 0
504 510 511 0
505 511 512 0
506 512 513 0
507 513 514 0
508 514 515 0
509 515 516 0
510 516 517 0
511 517 518 0
512 518 519 0
513 519 520 0
514 520 521 0
515 521 522 0
516 522 523 0
517 523 524 0
518 524 525 0
519 525 526 0
520 526 527 0
521 527 528 0
522 528 529 0
523 529 530 0
524 530 531 0
525 531 532 0
526 532 533 0
527 533 534 0
528 534 535 0
529 535 536 0
530 536 537 0
531 537 538 0
532 538 539 0
533 539 540 0
534 540 541 0
535 541 542 0
536 542 543 0
537 543 544 0
538 544 545 0
539 545 546 0
540 546 547 0
541 547 548 0
542 548 549 0
543 549 550 0
544 550 551 0
545 551 552 0
546 552 553 0
547 553 554 0
548 554 555 0
549 555 556 0
550 556 557 0
551 557 558 0
552 558 559 0
553 559 560 0
554 560 561 0
555 561 562 0
556 562 563 0
557 563 564 0
558 564 565 0
559 565 566 0
560 566 567 0
561 567 568 0
562 568 569 0
563 569 570 0
564 570 571 0
565 571 572 0
566 572 573 0
567 573 574 0
568 574 575 0
569 575 576 0
570 576 577 0
571 577 578 0
572 578 579 0
573 579 580 0
574 581 582 0
575 582 583 0
576 583 584 0
577 584 585 0
578 585 586 0
579 586 587 0
580 587 588 0
581 588 589 0
582 589 590 0
583 590 591 0
584 591 592 0
585 592 593 0
586 593 594 0
587 594 595 0
588 595 596 0
589 596 597 0
590 597 598 0
591 598 599 0
592 599 600 0
593 600 601 0
594 601 602 0
595 602 603 0
596 603 604 0
597 604 605 0
598 605 606 0
599 606 607 0
600 607 608 0
601 608 609 0
602 609 610 0
603 610 611 0
604 611 612 0
605 612 613 0
606 613 614 0
607 614 615 0
608 615 616 0
609 616 617 0
610 617 618 0
611 618 619 0
612 619 620 0
613 620 621 0
614 621 622 0
615 622 623 0
616 623 624 0
617 624 625 0
618 625 626 0
619 626 627 0
620 627 628 0
621 628 629 0
622 629 630 0
623 630 631 0
624 631 632 0
625 632 633 0
626 633 634 0
627 634 635 0
628 635 636 0
629 636 637 0
630 637 638 0
631 638 639 0
632 639 640 0
633 640 641 0
634 641 642 0
635 642 643 0
636 643 644 0
637 644 645 0
638 645 646 0
639 646 647 0
640 647 648 0
641 648 649 0
642 649 650 0
643 650 651 0
644 651 652 0
645 652 653 0
646 653 654 0
647 654 655 0
648 655 656 0
649 656 657 0
650 657 658 0
651 658 659 0
652 659 660 0
653 660 661 0
654 661 662 0
655 662 663 0
656 663 664 0
657 664 665 0
658 665 666 0
659 666 667 0
660 667 668 0
661 668 669 0
662 669 670 0
663 670 671 0
664 671 672 0
665 672 673 0
666 673 674 0
667 674 675 0
668 675 676 0
669 676 677 0
670 677 678 0
671 678 679 0
672 680 681 0
673 681 682 0
674 682 683 0
675 683 684 0
676 684 685 0
677 685 686 0
678 686 687 0
679 687 688 0
680 688 689 0
681 689 690 0
682 690 691 0
683 691 692 0
684 692 693 0
685 693 694 0
686 694 695 0
687 695 696 0
688 696 697 0
689 697 698 0
690 698 699 0
691 699 700 0
692 700 701 0
693 701 702 0
694 702 703 0
695 703 704 0
696 704 705 0
697 705 706 0
698 706 707 0
699 707 708 0
700 708 709 0
701 709 710 0
702 710 711 0
703 711 712 0
704 712 713 0
705 713 714 0
706 714 715 0
707 715 716 0
708 716 717 0
709 717 718 0
710 718 719 0
711 719 720 0
712 720 721 0
713 721 722 0
714 722 723 0
715 723 724 0
716 724 725 0
717 725 726 0
718 726 727 0
719 727 728 0
720 728 729 0
721 729 730 0
722 730 731 0
723 731 732 0
724 732 733 0
725 733 734 0
726 734 735 0
727 735 736 0
728 736 737 0
729 737 738 0
730 738 739 0
731 739 740 0
732 740 741 0
733 741 742 0
734 742 743 0
735 743 744 0
736 744 745 0
737 745 746 0
738 746 747 0
739 747 748 0
740 748 749 0
741 749 750 0
742 750 751 0
743 751 752 0
744 752 753 0
745 753 754 0
746 754 755 0
747 755 756 0
748 756 757 0
749 757 758 0
750 758 759 0
751 759 760 0
752 760 761 0
753 761 762 0
754 762 763 0
755 763 764 0
756 764 765 0
757 765 766 0
758 766 767 0
759 767 768 0
760 768 769 0
761 769 770 0
762 770 771 0
763 771 772 0
764 772 773 0
765 773 774 0
766 774 775 0
767 775 776 0
768 776 777 0
769 777 778 0
770 779 780 0
771 780 781 0
772 781 782 0
773 782 783 0
774 783 784 0
775 784 785 0
776 785 786 0
777 786 787 0
778 787 788 0
779 788 789 0
780 789 790 0
781 790 791 0
782 791 792 0
783 792 793 0
784 793 794 0
785 794 795 0
786 795 796 0
787 796 797 0
788 797 798 0
789 798 799 0
790 799 800 0
791 800 801 0
792 801 802 0
793 802 803 0
794 803 804 0
795 804 805 0
796 805 806 0
797 806 807 0
798 807 808 0
799 808 809 0
800 809 810 0
801 810 811 0
802 811 812 0
803 812 813 0
804 813 814 0
805 814 815 0
806 815 816 0
807 816 817 0
808 817 818 0
809 818 819 0
810 819 820 0
811 820 821 0
812 821 822 0
813 822 823 0
814 823 824 0
815 824 825 0
816 825 826 0
817 826 827 0
818 827 828 0
819 828 829 0
820 829 830 0
821 830 831 0
822 831 832 0
823 832 833 0
824 833 834 0
825 834 835 0
826 835 836 0
827 836 837 0
828 837 838 0
829 838 839 0
830 839 840 0
831 840 841 0
832 841 842 0
833 842 843 0
834 843 844 0
835 844 845 0
836 845 846 0
837 846 847 0
838 847 848 0
839 848 849 0
840 849 850 0
841 850 851 0
842 851 852 0
843 852 853 0
844 853 854 0
845 854 855 0
846 855 856 0
847 856 857 0
848 857 858 0
849 858 859 0
850 859 860 0
851 860 861 0
852 861 862 0
853 862 863 0
854 863 864 0
855 864 865 0
856 865 866 0
857 867 868 0
858 868 869 0
859 869 870 0
860 870 871 0
861 871 872 0
862 872 873 0
863 873 874 0
864 874 875 0
865 875 876 0
866 876 877 0
867 877 878 0
868 878 879 0
869 879 880 0
870 880 881 0
871 881 882 0
872 882 883 0
873 883 884 0
874 884 885 0
875 885 886 0
876 886 887 0
877 887 888 0
878 888 889 0
879 889 890 0
880 890 891 0
881 891 892 0
882 892 893 0
883 893 894 0
884 894 895 0
885 895 896 0
886 896 897 0
887 897 898 0
888 898 899 0
889 899 900 0
890 900 901 0
891 901 902 0
892 902 903 0
893 903 904 0
894 904 905 0
895 905 906 0
896 906 907 0
897 907 908 0
898 908 909 0
899 909 910 0
900 910 911 0
901 911 912 0
902 912 913 0
903 913 914 0
904 914 915 0
905 915 916 0
906 916 917 0
907 917 918 0
908 918 919 0
909 919 920 0
910 920 921 0
911 921 922 0
912 922 923 0
913 923 924 0
914 924 925 0
915 925 926 0
916 926 927 0
917 927 928 0
918 928 929 0
919 929 930 0
920 930 931 0
921 931 932 0
922 932 933 0
923 933 934 0
924 934 935 0
925 935 936 0
926 936 937 0
927 937 938 0
928 938 939 0
929 939 940 0
930 940 941 0
931 941 942 0
932 942 943 0
933 943 944 0
934 1 214 2
935 214 383 2
936 383 482 2
937 2 482 2
938 2 213 4
939 3 1 8
940 778 22 0
941 679 23 0
942 866 24 0
943 944 25 0
944 382 99 0
945 312 103 0
946 481 105 0
947 580 107 0
948 867 313 0
949 779 221 0
950 581 219 0
951 680 216 0
0
8 0
1 -6600.6 -10540.1 1 31415.9
2 -750 -9507.3 1 706.858
3 -660 -9383 2 28.2743
4 -590 -9217.4 3 706.858
5 584.5 -8510.3 3 31415.9
6 2371.9 -8446.1 4 28.2743
7 2580 -8519.2 5 706.858
8 3484.8 -8422.9 5 31415.9
