952 2 0 1
1 -11000 -16000 0
2 10000 -16000 0
3 -11000 -2197.46 0
4 -10900 -2288.55 0
5 -10800 -2351.05 0
6 -10700 -2388.71 0
7 -10600 -2406.11 0
8 -10500 -2422.93 0
9 -10400 -2440.21 0
10 -10300 -2459.94 0
11 -10200 -2480.6 0
12 -10100 -2500.16 0
13 -10000 -2515.47 0
14 -9900 -2521.85 0
15 -9800 -2519.03 0
16 -9700 -2509.06 0
17 -9600 -2492.95 0
18 -9500 -2475.22 0
19 -9400 -2457.3 0
20 -9300 -2442.99 0
21 -9200 -2430.9 0
22 -9100 -2419.02 0
23 -9000 -2402.87 0
24 -8900 -2376.69 0
25 -8800 -2338.36 0
26 -8700 -2288.3 0
27 -8600 -2229.12 0
28 -8500 -2170.36 0
29 -8400 -2117.58 0
30 -8300 -2086.42 0
31 -8200 -2072.65 0
32 -8100 -2075.5 0
33 -8000 -2087.57 0
34 -7900 -2103.08 0
35 -7800 -2118.9 0
36 -7700 -2133.46 0
37 -7600 -2146.15 0
38 -7500 -2157.27 0
39 -7400 -2167.81 0
40 -7300 -2180.88 0
41 -7200 -2196.1 0
42 -7100 -2213.64 0
43 -7000 -2232.08 0
44 -6900 -2250.06 0
45 -6800 -2264.2 0
46 -6700 -2270.91 0
47 -6600 -2270.22 0
48 -6500 -2265.85 0
49 -6400 -2260.73 0
50 -6300 -2262.27 0
51 -6200 -2269.78 0
52 -6100 -2283.77 0
53 -6000 -2301.63 0
54 -5900 -2321.3 0
55 -5800 -2341.32 0
56 -5700 -2360.57 0
57 -5600 -2377.9 0
58 -5500 -2391.51 0
59 -5400 -2401.17 0
60 -5300 -2406.14 0
61 -5200 -2408.4 0
62 -5100 -2409.77 0
63 -5000 -2417.26 0
64 -4900 -2438.79 0
65 -4800 -2463.63 0
66 -4700 -2475.27 0
67 -4600 -2474.35 0
68 -4500 -2473.18 0
69 -4400 -2472.63 0
70 -4300 -2472.1 0
71 -4200 -2471.94 0
72 -4100 -2472.8 0
73 -4000 -2476.15 0
74 -3900 -2483.85 0
75 -3800 -2496.33 0
76 -3700 -2513.31 0
77 -3600 -2535.07 0
78 -3500 -2561.44 0
79 -3400 -2589.82 0
80 -3300 -2613.8 0
81 -3200 -2633.52 0
82 -3100 -2648.24 0
83 -3000 -2659.1 0
84 -2900 -2666.63 0
85 -2800 -2670.71 0
86 -2700 -2671.33 0
87 -2600 -2671.19 0
88 -2500 -2676.38 0
89 -2400 -2688.23 0
90 -2300 -2710.7 0
91 -2200 -2732.79 0
92 -2100 -2737.76 0
93 -2000 -2730.28 0
94 -1900 -2715.3 0
95 -1800 -2699.77 0
96 -1700 -2690.04 0
97 -1600 -2688.06 0
98 -1500 -2693.5 0
99 -1400 -2704.15 0
100 -1300 -2715.51 0
101 -1200 -2727.34 0
102 -1100 -2739.98 0
103 -1000 -2755.28 0
104 -900 -2775.59 0
105 -800 -2795.86 0
106 -700 -2809.41 0
107 -600 -2814.14 0
108 -500 -2809.94 0
109 -400 -2800.33 0
110 -300 -2793.31 0
111 -200 -2789.35 0
112 -100 -2790.29 0
113 0 -2790.82 0
114 100 -2785.27 0
115 200 -2775.99 0
116 300 -2768.06 0
117 400 -2765.63 0
118 500 -2774.9 0
119 600 -2794.95 0
120 700 -2825.17 0
121 800 -2860.97 0
122 900 -2898.63 0
123 1000 -2934.44 0
124 1100 -2965.03 0
125 1200 -2991.27 0
126 1300 -3015.63 0
127 1400 -3040.67 0
128 1500 -3070.79 0
129 1600 -3106.38 0
130 1700 -3149.5 0
131 1800 -3198 0
132 1900 -3251.14 0
133 2000 -3301.77 0
134 2100 -3342.67 0
135 2200 -3369.93 0
136 2300 -3382.34 0
137 2400 -3382.07 0
138 2500 -3375.36 0
139 2600 -3367.03 0
140 2700 -3368.08 0
141 2800 -3374 0
142 2900 -3380.49 0
143 3000 -3386.29 0
144 3100 -3390.81 0
145 3200 -3388.61 0
146 3300 -3374.08 0
147 3400 -3346.6 0
148 3500 -3309.4 0
149 3600 -3267.5 0
150 3700 -3231.42 0
151 3800 -3201.06 0
152 3900 -3178.55 0
153 4000 -3164.52 0
154 4100 -3161.37 0
155 4200 -3167.74 0
156 4300 -3180.72 0
157 4400 -3193.42 0
158 4500 -3193.88 0
159 4600 -3185.64 0
160 4700 -3177.24 0
161 4800 -3167.99 0
162 4900 -3155.98 0
163 5000 -3142.11 0
164 5100 -3126.91 0
165 5200 -3109.97 0
166 5300 -3091.3 0
167 5400 -3078.99 0
168 5500 -3087.93 0
169 5600 -3112.94 0
170 5700 -3142.85 0
171 5800 -3172.89 0
172 5900 -3196.51 0
173 6000 -3212.95 0
174 6100 -3220.5 0
175 6200 -3220.65 0
176 6300 -3215.76 0
177 6400 -3210.38 0
178 6500 -3212.15 0
179 6600 -3218.9 0
180 6700 -3226.46 0
181 6800 -3233.51 0
182 6900 -3237.87 0
183 7000 -3241.42 0
184 7100 -3245.87 0
185 7200 -3249 0
186 7300 -3248.23 0
187 7400 -3243.68 0
188 7500 -3236.73 0
189 7600 -3228.81 0
190 7700 -3222.95 0
191 7800 -3218.11 0
192 7900 -3213.6 0
193 8000 -3208.85 0
194 8100 -3203.51 0
195 8200 -3195.28 0
196 8300 -3182 0
197 8400 -3165.22 0
198 8500 -3149.05 0
199 8600 -3134.05 0
200 8700 -3121.77 0
201 8800 -3111.64 0
202 8900 -3104.31 0
203 9000 -3099.07 0
204 9100 -3095.85 0
205 9200 -3093.33 0
206 9300 -3090.27 0
207 9400 -3086.12 0
208 9500 -3080.44 0
209 9600 -3074.1 0
210 9700 -3068.81 0
211 9800 -3062.97 0
212 9900 -3053.62 0
213 10000 -3041.66 0
214 2583.29 -16000 0
215 2579.91 -15865.5 0
216 2575.59 -15731.1 0
217 2570.02 -15596.6 0
218 2563.18 -15462.1 0
219 2555.21 -15327.7 0
220 2546.38 -15193.2 0
221 2536.99 -15058.8 0
222 2527.33 -14924.3 0
223 2517.69 -14789.8 0
224 2508.28 -14655.4 0
225 2499.28 -14520.9 0
226 2490.8 -14386.4 0
227 2482.91 -14252 0
228 2475.63 -14117.5 0
229 2468.9 -13983 0
230 2462.68 -13848.6 0
231 2456.87 -13714.1 0
232 2451.36 -13579.7 0
233 2446.04 -13445.2 0
234 2440.8 -13310.7 0
235 2435.52 -13176.3 0
236 2430.11 -13041.8 0
237 2424.49 -12907.3 0
238 2418.58 -12772.9 0
239 2412.36 -12638.4 0
240 2405.77 -12504 0
241 2398.82 -12369.5 0
242 2391.51 -12235 0
243 2383.86 -12100.6 0
244 2375.9 -11966.1 0
245 2367.66 -11831.6 0
246 2359.19 -11697.2 0
247 2350.53 -11562.7 0
248 2341.71 -11428.2 0
249 2332.78 -11293.8 0
250 2323.76 -11159.3 0
251 2314.67 -11024.9 0
252 2305.51 -10890.4 0
253 2296.27 -10755.9 0
254 2286.92 -10621.5 0
255 2277.44 -10487 0
256 2267.78 -10352.5 0
257 2257.85 -10218.1 0
258 2247.6 -10083.6 0
259 2236.93 -9949.15 0
260 2225.75 -9814.68 0
261 2213.96 -9680.22 0
262 2201.46 -9545.76 0
263 2188.13 -9411.29 0
264 2173.89 -9276.83 0
265 2158.62 -9142.37 0
266 2142.23 -9007.9 0
267 2124.64 -8873.44 0
268 2105.77 -8738.98 0
269 2085.54 -8604.51 0
270 2063.91 -8470.05 0
271 2040.83 -8335.59 0
272 2016.25 -8201.12 0
273 1990.16 -8066.66 0
274 1962.54 -7932.2 0
275 1933.36 -7797.73 0
276 1902.63 -7663.27 0
277 1870.33 -7528.81 0
278 1836.46 -7394.34 0
279 1800.98 -7259.88 0
280 1763.89 -7125.42 0
281 1725.14 -6990.95 0
282 1684.67 -6856.49 0
283 1642.42 -6722.03 0
284 1598.3 -6587.56 0
285 1552.18 -6453.1 0
286 1503.92 -6318.64 0
287 1453.37 -6184.17 0
288 1400.33 -6049.71 0
289 1344.58 -5915.25 0
290 1285.89 -5780.78 0
291 1224 -5646.32 0
292 1158.64 -5511.86 0
293 1089.54 -5377.39 0
294 1016.39 -5242.93 0
295 938.916 -5108.47 0
296 856.826 -4974 0
297 769.844 -4839.54 0
298 677.701 -4705.07 0
299 580.142 -4570.61 0
300 476.921 -4436.15 0
301 367.799 -4301.68 0
302 252.527 -4167.22 0
303 130.836 -4032.76 0
304 2.40772 -3898.29 0
305 -133.16 -3763.83 0
306 -276.397 -3629.37 0
307 -428.026 -3494.9 0
308 -589.038 -3360.44 0
309 -760.787 -3225.98 0
310 -945.118 -3091.51 0
311 -1144.5 -2957.05 0
312 -1362.23 -2822.59 0
313 2183.86 -12100.6 0
314 2175.9 -11966.1 0
315 2167.66 -11831.6 0
316 2159.19 -11697.2 0
317 2150.53 -11562.7 0
318 2141.71 -11428.2 0
319 2132.78 -11293.8 0
320 2123.76 -11159.3 0
321 2114.67 -11024.9 0
322 2105.51 -10890.4 0
323 2096.27 -10755.9 0
324 2086.92 -10621.5 0
325 2077.44 -10487 0
326 2067.78 -10352.5 0
327 2057.85 -10218.1 0
328 2047.6 -10083.6 0
329 2036.93 -9949.15 0
330 2025.75 -9814.68 0
331 2013.96 -9680.22 0
332 2001.46 -9545.76 0
333 1988.13 -9411.29 0
334 1973.89 -9276.83 0
335 1958.62 -9142.37 0
336 1942.23 -9007.9 0
337 1924.64 -8873.44 0
338 1905.77 -8738.98 0
339 1885.54 -8604.51 0
340 1863.91 -8470.05 0
341 1840.83 -8335.59 0
342 1816.25 -8201.12 0
343 1790.16 -8066.66 0
344 1762.54 -7932.2 0
345 1733.36 -7797.73 0
346 1702.63 -7663.27 0
347 1670.33 -7528.81 0
348 1636.46 -7394.34 0
349 1600.98 -7259.88 0
350 1563.89 -7125.42 0
351 1525.14 -6990.95 0
352 1484.67 -6856.49 0
353 1442.42 -6722.03 0
354 1398.3 -6587.56 0
355 1352.18 -6453.1 0
356 1303.92 -6318.64 0
357 1253.37 -6184.17 0
358 1200.33 -6049.71 0
359 1144.58 -5915.25 0
360 1085.89 -5780.78 0
361 1024 -5646.32 0
362 958.643 -5511.86 0
363 889.536 -5377.39 0
364 816.39 -5242.93 0
365 738.916 -5108.47 0
366 656.826 -4974 0
367 569.844 -4839.54 0
368 477.701 -4705.07 0
369 380.142 -4570.61 0
370 276.921 -4436.15 0
371 167.799 -4301.68 0
372 52.527 -4167.22 0
373 -69.1639 -4032.76 0
374 -197.592 -3898.29 0
375 -333.16 -3763.83 0
376 -476.397 -3629.37 0
377 -628.026 -3494.9 0
378 -789.038 -3360.44 0
379 -960.787 -3225.98 0
380 -1145.12 -3091.51 0
381 -1344.5 -2957.05 0
382 -1562.23 -2822.59 0
383 3183.43 -16000 0
384 3180.13 -15866.6 0
385 3176.08 -15733.3 0
386 3170.85 -15599.9 0
387 3164.36 -15466.5 0
388 3156.72 -15333.1 0
389 3148.16 -15199.8 0
390 3138.96 -15066.4 0
391 3129.42 -14933 0
392 3119.83 -14799.6 0
393 3110.4 -14666.3 0
394 3101.34 -14532.9 0
395 3092.77 -14399.5 0
396 3084.76 -14266.1 0
397 3077.34 -14132.8 0
398 3070.49 -13999.4 0
399 3064.15 -13866 0
400 3058.25 -13732.6 0
401 3052.67 -13599.3 0
402 3047.32 -13465.9 0
403 3042.09 -13332.5 0
404 3036.86 -13199.1 0
405 3031.53 -13065.8 0
406 3026.03 -12932.4 0
407 3020.29 -12799 0
408 3014.24 -12665.6 0
409 3007.87 -12532.3 0
410 3001.14 -12398.9 0
411 2994.06 -12265.5 0
412 2986.64 -12132.1 0
413 2978.9 -11998.8 0
414 2970.88 -11865.4 0
415 2962.61 -11732 0
416 2954.14 -11598.6 0
417 2945.49 -11465.3 0
418 2936.71 -11331.9 0
419 2927.82 -11198.5 0
420 2918.85 -11065.1 0
421 2909.81 -10931.8 0
422 2900.68 -10798.4 0
423 2891.47 -10665 0
424 2882.14 -10531.6 0
425 2872.65 -10398.3 0
426 2862.96 -10264.9 0
427 2852.99 -10131.5 0
428 2842.68 -9998.14 0
429 2831.95 -9864.77 0
430 2820.71 -9731.39 0
431 2808.86 -9598.02 0
432 2796.32 -9464.64 0
433 2782.98 -9331.27 0
434 2768.75 -9197.89 0
435 2753.55 -9064.52 0
436 2737.28 -8931.14 0
437 2719.87 -8797.77 0
438 2701.25 -8664.39 0
439 2681.37 -8531.02 0
440 2660.15 -8397.64 0
441 2637.58 -8264.27 0
442 2613.6 -8130.9 0
443 2588.2 -7997.52 0
444 2561.35 -7864.15 0
445 2533.05 -7730.77 0
446 2503.29 -7597.4 0
447 2472.06 -7464.02 0
448 2439.35 -7330.65 0
449 2405.15 -7197.27 0
450 2369.45 -7063.9 0
451 2332.22 -6930.52 0
452 2293.43 -6797.15 0
453 2253.03 -6663.77 0
454 2210.95 -6530.4 0
455 2167.12 -6397.02 0
456 2121.45 -6263.65 0
457 2073.81 -6130.28 0
458 2024.06 -5996.9 0
459 1972.07 -5863.53 0
460 1917.65 -5730.15 0
461 1860.61 -5596.78 0
462 1800.76 -5463.4 0
463 1737.88 -5330.03 0
464 1671.75 -5196.65 0
465 1602.14 -5063.28 0
466 1528.82 -4929.9 0
467 1451.56 -4796.53 0
468 1370.14 -4663.15 0
469 1284.34 -4529.78 0
470 1193.94 -4396.4 0
471 1098.74 -4263.03 0
472 998.559 -4129.66 0
473 893.187 -3996.28 0
474 782.43 -3862.91 0
475 666.073 -3729.53 0
476 543.874 -3596.16 0
477 415.539 -3462.78 0
478 280.703 -3329.41 0
479 138.893 -3196.03 0
480 -10.505 -3062.66 0
481 -168.297 -2929.28 0
482 3383.43 -16000 0
483 3380.13 -15866.6 0
484 3376.08 -15733.3 0
485 3370.85 -15599.9 0
486 3364.36 -15466.5 0
487 3356.72 -15333.1 0
488 3348.16 -15199.8 0
489 3338.96 -15066.4 0
490 3329.42 -14933 0
491 3319.83 -14799.6 0
492 3310.4 -14666.3 0
493 3301.34 -14532.9 0
494 3292.77 -14399.5 0
495 3284.76 -14266.1 0
496 3277.34 -14132.8 0
497 3270.49 -13999.4 0
498 3264.15 -13866 0
499 3258.25 -13732.6 0
500 3252.67 -13599.3 0
501 3247.32 -13465.9 0
502 3242.09 -13332.5 0
503 3236.86 -13199.1 0
504 3231.53 -13065.8 0
505 3226.03 -12932.4 0
506 3220.29 -12799 0
507 3214.24 -12665.6 0
508 3207.87 -12532.3 0
509 3201.14 -12398.9 0
510 3194.06 -12265.5 0
511 3186.64 -12132.1 0
512 3178.9 -11998.8 0
513 3170.88 -11865.4 0
514 3162.61 -11732 0
515 3154.14 -11598.6 0
516 3145.49 -11465.3 0
517 3136.71 -11331.9 0
518 3127.82 -11198.5 0
519 3118.85 -11065.1 0
520 3109.81 -10931.8 0
521 3100.68 -10798.4 0
522 3091.47 -10665 0
523 3082.14 -10531.6 0
524 3072.65 -10398.3 0
525 3062.96 -10264.9 0
526 3052.99 -10131.5 0
527 3042.68 -9998.14 0
528 3031.95 -9864.77 0
529 3020.71 -9731.39 0
530 3008.86 -9598.02 0
531 2996.32 -9464.64 0
532 2982.98 -9331.27 0
533 2968.75 -9197.89 0
534 2953.55 -9064.52 0
535 2937.28 -8931.14 0
536 2919.87 -8797.77 0
537 2901.25 -8664.39 0
538 2881.37 -8531.02 0
539 2860.15 -8397.64 0
540 2837.58 -8264.27 0
541 2813.6 -8130.9 0
542 2788.2 -7997.52 0
543 2761.35 -7864.15 0
544 2733.05 -7730.77 0
545 2703.29 -7597.4 0
546 2672.06 -7464.02 0
547 2639.35 -7330.65 0
548 2605.15 -7197.27 0
549 2569.45 -7063.9 0
550 2532.22 -6930.52 0
551 2493.43 -6797.15 0
552 2453.03 -6663.77 0
553 2410.95 -6530.4 0
554 2367.12 -6397.02 0
555 2321.45 -6263.65 0
556 2273.81 -6130.28 0
557 2224.06 -5996.9 0
558 2172.07 -5863.53 0
559 2117.65 -5730.15 0
560 2060.61 -5596.78 0
561 2000.76 -5463.4 0
562 1937.88 -5330.03 0
563 1871.75 -5196.65 0
564 1802.14 -5063.28 0
565 1728.82 -4929.9 0
566 1651.56 -4796.53 0
567 1570.14 -4663.15 0
568 1484.34 -4529.78 0
569 1393.94 -4396.4 0
570 1298.74 -4263.03 0
571 1198.56 -4129.66 0
572 1093.19 -3996.28 0
573 982.43 -3862.91 0
574 866.073 -3729.53 0
575 743.874 -3596.16 0
576 615.539 -3462.78 0
577 480.703 -3329.41 0
578 338.893 -3196.03 0
579 189.495 -3062.66 0
580 31.7032 -2929.28 0
581 2391.19 -15000 0
582 2328.42 -14873.3 0
583 2264.25 -14746.6 0
584 2199.36 -14619.9 0
585 2134.29 -14493.2 0
586 2069.42 -14366.5 0
587 2005 -14239.8 0
588 1941.12 -14113.1 0
589 1877.77 -13986.4 0
590 1814.82 -13859.7 0
591 1752.09 -13733 0
592 1689.34 -13606.3 0
593 1626.3 -13479.6 0
594 1562.71 -13352.9 0
595 1498.31 -13226.2 0
596 1432.85 -13099.5 0
597 1366.12 -12972.8 0
598 1297.98 -12846.1 0
599 1228.28 -12719.4 0
600 1156.97 -12592.7 0
601 1084 -12466 0
602 1009.39 -12339.3 0
603 933.194 -12212.6 0
604 855.476 -12085.9 0
605 776.339 -11959.2 0
606 695.898 -11832.5 0
607 614.276 -11705.8 0
608 531.595 -11579.1 0
609 447.972 -11452.4 0
610 363.511 -11325.7 0
611 278.298 -11199 0
612 192.398 -11072.3 0
613 105.851 -10945.6 0
614 18.671 -10818.9 0
615 -69.1558 -10692.2 0
616 -157.669 -10565.5 0
617 -246.933 -10438.8 0
618 -337.035 -10312.1 0
619 -428.081 -10185.4 0
620 -520.192 -10058.7 0
621 -613.499 -9932.02 0
622 -708.141 -9805.32 0
623 -804.253 -9678.62 0
624 -901.97 -9551.92 0
625 -1001.42 -9425.22 0
626 -1102.7 -9298.52 0
627 -1205.92 -9171.82 0
628 -1311.14 -9045.12 0
629 -1418.41 -8918.42 0
630 -1527.77 -8791.72 0
631 -1639.2 -8665.02 0
632 -1752.68 -8538.32 0
633 -1868.16 -8411.62 0
634 -1985.56 -8284.92 0
635 -2104.8 -8158.22 0
636 -2225.76 -8031.52 0
637 -2348.32 -7904.82 0
638 -2472.34 -7778.12 0
639 -2597.71 -7651.42 0
640 -2724.29 -7524.72 0
641 -2851.96 -7398.02 0
642 -2980.61 -7271.32 0
643 -3110.17 -7144.62 0
644 -3240.56 -7017.92 0
645 -3371.76 -6891.22 0
646 -3503.75 -6764.53 0
647 -3636.57 -6637.83 0
648 -3770.29 -6511.13 0
649 -3904.98 -6384.43 0
650 -4040.8 -6257.73 0
651 -4177.89 -6131.03 0
652 -4316.45 -6004.33 0
653 -4456.69 -5877.63 0
654 -4598.82 -5750.93 0
655 -4743.1 -5624.23 0
656 -4889.75 -5497.53 0
657 -5039.03 -5370.83 0
658 -5191.14 -5244.13 0
659 -5346.3 -5117.43 0
660 -5504.68 -4990.73 0
661 -5666.43 -4864.03 0
662 -5831.67 -4737.33 0
663 -6000.45 -4610.63 0
664 -6172.82 -4483.93 0
665 -6348.76 -4357.23 0
666 -6528.23 -4230.53 0
667 -6711.16 -4103.83 0
668 -6897.46 -3977.13 0
669 -7087.03 -3850.43 0
670 -7279.78 -3723.73 0
671 -7475.66 -3597.04 0
672 -7674.63 -3470.34 0
673 -7876.73 -3343.64 0
674 -8082.05 -3216.94 0
675 -8290.77 -3090.24 0
676 -8503.13 -2963.54 0
677 -8719.48 -2836.84 0
678 -8940.17 -2710.14 0
679 -9165.58 -2583.44 0
680 2191.19 -15000 0
681 2128.42 -14873.3 0
682 2064.25 -14746.6 0
683 1999.36 -14619.9 0
684 1934.29 -14493.2 0
685 1869.42 -14366.5 0
686 1805 -14239.8 0
687 1741.12 -14113.1 0
688 1677.77 -13986.4 0
689 1614.82 -13859.7 0
690 1552.09 -13733 0
691 1489.34 -13606.3 0
692 1426.3 -13479.6 0
693 1362.71 -13352.9 0
694 1298.31 -13226.2 0
695 1232.85 -13099.5 0
696 1166.12 -12972.8 0
697 1097.98 -12846.1 0
698 1028.28 -12719.4 0
699 956.968 -12592.7 0
700 884.002 -12466 0
701 809.395 -12339.3 0
702 733.194 -12212.6 0
703 655.476 -12085.9 0
704 576.339 -11959.2 0
705 495.898 -11832.5 0
706 414.276 -11705.8 0
707 331.595 -11579.1 0
708 247.972 -11452.4 0
709 163.511 -11325.7 0
710 78.2982 -11199 0
711 -7.60188 -11072.3 0
712 -94.1489 -10945.6 0
713 -181.329 -10818.9 0
714 -269.156 -10692.2 0
715 -357.669 -10565.5 0
716 -446.933 -10438.8 0
717 -537.035 -10312.1 0
718 -628.081 -10185.4 0
719 -720.192 -10058.7 0
720 -813.499 -9932.02 0
721 -908.141 -9805.32 0
722 -1004.25 -9678.62 0
723 -1101.97 -9551.92 0
724 -1201.42 -9425.22 0
725 -1302.7 -9298.52 0
726 -1405.92 -9171.82 0
727 -1511.14 -9045.12 0
728 -1618.41 -8918.42 0
729 -1727.77 -8791.72 0
730 -1839.2 -8665.02 0
731 -1952.68 -8538.32 0
732 -2068.16 -8411.62 0
733 -2185.56 -8284.92 0
734 -2304.8 -8158.22 0
735 -2425.76 -8031.52 0
736 -2548.32 -7904.82 0
737 -2672.34 -7778.12 0
738 -2797.71 -7651.42 0
739 -2924.29 -7524.72 0
740 -3051.96 -7398.02 0
741 -3180.61 -7271.32 0
742 -3310.17 -7144.62 0
743 -3440.56 -7017.92 0
744 -3571.76 -6891.22 0
745 -3703.75 -6764.53 0
746 -3836.57 -6637.83 0
747 -3970.29 -6511.13 0
748 -4104.98 -6384.43 0
749 -4240.8 -6257.73 0
750 -4377.89 -6131.03 0
751 -4516.45 -6004.33 0
752 -4656.69 -5877.63 0
753 -4798.82 -5750.93 0
754 -4943.1 -5624.23 0
755 -5089.75 -5497.53 0
756 -5239.03 -5370.83 0
757 -5391.14 -5244.13 0
758 -5546.3 -5117.43 0
759 -5704.68 -4990.73 0
760 -5866.43 -4864.03 0
761 -6031.67 -4737.33 0
762 -6200.45 -4610.63 0
763 -6372.82 -4483.93 0
764 -6548.76 -4357.23 0
765 -6728.23 -4230.53 0
766 -6911.16 -4103.83 0
767 -7097.46 -3977.13 0
768 -7287.03 -3850.43 0
769 -7479.78 -3723.73 0
770 -7675.66 -3597.04 0
771 -7874.63 -3470.34 0
772 -8076.73 -3343.64 0
773 -8282.05 -3216.94 0
774 -8490.77 -3090.24 0
775 -8703.13 -2963.54 0
776 -8919.48 -2836.84 0
777 -9140.17 -2710.14 0
778 -9365.58 -2583.44 0
779 2257.87 -13402.4 0
780 2194.78 -13275.3 0
781 2131.3 -13148.3 0
782 2067.17 -13021.2 0
783 2002.14 -12894.1 0
784 1936 -12767.1 0
785 1868.58 -12640 0
786 1799.71 -12513 0
787 1729.32 -12385.9 0
788 1657.33 -12258.9 0
789 1583.72 -12131.8 0
790 1508.53 -12004.7 0
791 1431.79 -11877.7 0
792 1353.59 -11750.6 0
793 1274.03 -11623.6 0
794 1193.2 -11496.5 0
795 1111.24 -11369.5 0
796 1028.25 -11242.4 0
797 944.344 -11115.3 0
798 859.619 -10988.3 0
799 774.153 -10861.2 0
800 688.008 -10734.2 0
801 601.221 -10607.1 0
802 513.802 -10480 0
803 425.741 -10353 0
804 336.999 -10225.9 0
805 247.516 -10098.9 0
806 157.212 -9971.82 0
807 65.986 -9844.76 0
808 -26.274 -9717.7 0
809 -119.692 -9590.65 0
810 -214.396 -9463.59 0
811 -310.519 -9336.53 0
812 -408.186 -9209.48 0
813 -507.517 -9082.42 0
814 -608.621 -8955.36 0
815 -711.59 -8828.3 0
816 -816.498 -8701.25 0
817 -923.399 -8574.19 0
818 -1032.32 -8447.13 0
819 -1143.28 -8320.07 0
820 -1256.25 -8193.02 0
821 -1371.19 -8065.96 0
822 -1488.05 -7938.9 0
823 -1606.74 -7811.84 0
824 -1727.16 -7684.79 0
825 -1849.21 -7557.73 0
826 -1972.77 -7430.67 0
827 -2097.71 -7303.61 0
828 -2223.91 -7176.56 0
829 -2351.26 -7049.5 0
830 -2479.64 -6922.44 0
831 -2608.98 -6795.39 0
832 -2739.19 -6668.33 0
833 -2870.22 -6541.27 0
834 -3002.06 -6414.21 0
835 -3134.72 -6287.16 0
836 -3268.23 -6160.1 0
837 -3402.66 -6033.04 0
838 -3538.12 -5905.98 0
839 -3674.73 -5778.93 0
840 -3812.66 -5651.87 0
841 -3952.09 -5524.81 0
842 -4093.22 -5397.75 0
843 -4236.27 -5270.7 0
844 -4381.48 -5143.64 0
845 -4529.05 -5016.58 0
846 -4679.23 -4889.52 0
847 -4832.21 -4762.47 0
848 -4988.2 -4635.41 0
849 -5147.36 -4508.35 0
850 -5309.82 -4381.3 0
851 -5475.7 -4254.24 0
852 -5645.05 -4127.18 0
853 -5817.91 -4000.12 0
854 -5994.28 -3873.07 0
855 -6174.11 -3746.01 0
856 -6357.34 -3618.95 0
857 -6543.89 -3491.89 0
858 -6733.67 -3364.84 0
859 -6926.6 -3237.78 0
860 -7122.61 -3110.72 0
861 -7321.67 -2983.66 0
862 -7523.81 -2856.61 0
863 -7729.11 -2729.55 0
864 -7937.72 -2602.49 0
865 -8149.87 -2475.43 0
866 -8365.87 -2348.38 0
867 1783.72 -12131.8 0
868 1708.53 -12004.7 0
869 1631.79 -11877.7 0
870 1553.59 -11750.6 0
871 1474.03 -11623.6 0
872 1393.2 -11496.5 0
873 1311.24 -11369.5 0
874 1228.25 -11242.4 0
875 1144.34 -11115.3 0
876 1059.62 -10988.3 0
877 974.153 -10861.2 0
878 888.008 -10734.2 0
879 801.221 -10607.1 0
880 713.802 -10480 0
881 625.741 -10353 0
882 536.999 -10225.9 0
883 447.516 -10098.9 0
884 357.212 -9971.82 0
885 265.986 -9844.76 0
886 173.726 -9717.7 0
887 80.3083 -9590.65 0
888 -14.3964 -9463.59 0
889 -110.519 -9336.53 0
890 -208.186 -9209.48 0
891 -307.517 -9082.42 0
892 -408.621 -8955.36 0
893 -511.59 -8828.3 0
894 -616.498 -8701.25 0
895 -723.399 -8574.19 0
896 -832.324 -8447.13 0
897 -943.279 -8320.07 0
898 -1056.25 -8193.02 0
899 -1171.19 -8065.96 0
900 -1288.05 -7938.9 0
901 -1406.74 -7811.84 0
902 -1527.16 -7684.79 0
903 -1649.21 -7557.73 0
904 -1772.77 -7430.67 0
905 -1897.71 -7303.61 0
906 -2023.91 -7176.56 0
907 -2151.26 -7049.5 0
908 -2279.64 -6922.44 0
909 -2408.98 -6795.39 0
910 -2539.19 -6668.33 0
911 -2670.22 -6541.27 0
912 -2802.06 -6414.21 0
913 -2934.72 -6287.16 0
914 -3068.23 -6160.1 0
915 -3202.66 -6033.04 0
916 -3338.12 -5905.98 0
917 -3474.73 -5778.93 0
918 -3612.66 -5651.87 0
919 -3752.09 -5524.81 0
920 -3893.22 -5397.75 0
921 -4036.27 -5270.7 0
922 -4181.48 -5143.64 0
923 -4329.05 -5016.58 0
924 -4479.23 -4889.52 0
925 -4632.21 -4762.47 0
926 -4788.2 -4635.41 0
927 -4947.36 -4508.35 0
928 -5109.82 -4381.3 0
929 -5275.7 -4254.24 0
930 -5445.05 -4127.18 0
931 -5617.91 -4000.12 0
932 -5794.28 -3873.07 0
933 -5974.11 -3746.01 0
934 -6157.34 -3618.95 0
935 -6343.89 -3491.89 0
936 -6533.67 -3364.84 0
937 -6726.6 -3237.78 0
938 -6922.61 -3110.72 0
939 -7121.67 -2983.66 0
940 -7323.81 -2856.61 0
941 -7529.11 -2729.55 0
942 -7737.72 -2602.49 0
943 -7949.87 -2475.43 0
944 -8165.87 -2348.38 0
945 -6600.6 -10540.1 0
946 -1025.9 -9507.3 0
947 -752.5 -9383 0
948 -299.7 -9217.4 0
949 584.5 -8510.3 0
950 2371.9 -8446.1 0
951 2789.3 -8519.2 0
952 3484.8 -8422.9 0
951 1
1 3 4 6
2 4 5 6
3 5 6 6
4 6 7 6
5 7 8 6
6 8 9 6
7 9 10 6
8 10 11 6
9 11 12 6
10 12 13 6
11 13 14 6
12 14 15 6
13 15 16 6
14 16 17 6
15 17 18 6
16 18 19 6
17 19 20 6
18 20 21 6
19 21 22 6
20 22 23 6
21 23 24 6
22 24 25 6
23 25 26 6
24 26 27 6
25 27 28 6
26 28 29 6
27 29 30 6
28 30 31 6
29 31 32 6
30 32 33 6
31 33 34 6
32 34 35 6
33 35 36 6
34 36 37 6
35 37 38 6
36 38 39 6
37 39 40 6
38 40 41 6
39 41 42 6
40 42 43 6
41 43 44 6
42 44 45 6
43 45 46 6
44 46 47 6
45 47 48 6
46 48 49 6
47 49 50 6
48 50 51 6
49 51 52 6
50 52 53 6
51 53 54 6
52 54 55 6
53 55 56 6
54 56 57 6
55 57 58 6
56 58 59 6
57 59 60 6
58 60 61 6
59 61 62 6
60 62 63 6
61 63 64 6
62 64 65 6
63 65 66 6
64 66 67 6
65 67 68 6
66 68 69 6
67 69 70 6
68 70 71 6
69 71 72 6
70 72 73 6
71 73 74 6
72 74 75 6
73 75 76 6
74 76 77 6
75 77 78 6
76 78 79 6
77 79 80 6
78 80 81 6
79 81 82 6
80 82 83 6
81 83 84 6
82 84 85 6
83 85 86 6
84 86 87 6
85 87 88 6
86 88 89 6
87 89 90 6
88 90 91 6
89 91 92 6
90 92 93 6
91 93 94 6
92 94 95 6
93 95 96 6
94 96 97 6
95 97 98 6
96 98 99 6
97 99 100 6
98 100 101 6
99 101 102 6
100 102 103 6
101 103 104 6
102 104 105 6
103 105 106 6
104 106 107 6
105 107 108 6
106 108 109 6
107 109 110 6
108 110 111 6
109 111 112 6
110 112 113 6
111 113 114 6
112 114 115 6
113 115 116 6
114 116 117 6
115 117 118 6
116 118 119 6
117 119 120 6
118 120 121 6
119 121 122 6
120 122 123 6
121 123 124 6
122 124 125 6
123 125 126 6
124 126 127 6
125 127 128 6
126 128 129 6
127 129 130 6
128 130 131 6
129 131 132 6
130 132 133 6
131 133 134 6
132 134 135 6
133 135 136 6
134 136 137 6
135 137 138 6
136 138 139 6
137 139 140 6
138 140 141 6
139 141 142 6
140 142 143 6
141 143 144 6
142 144 145 6
143 145 146 6
144 146 147 6
145 147 148 6
146 148 149 6
147 149 150 6
148 150 151 6
149 151 152 6
150 152 153 6
151 153 154 6
152 154 155 6
153 155 156 6
154 156 157 6
155 157 158 6
156 158 159 6
157 159 160 6
158 160 161 6
159 161 162 6
160 162 163 6
161 163 164 6
162 164 165 6
163 165 166 6
164 166 167 6
165 167 168 6
166 168 169 6
167 169 170 6
168 170 171 6
169 171 172 6
170 172 173 6
171 173 174 6
172 174 175 6
173 175 176 6
174 176 177 6
175 177 178 6
176 178 179 6
177 179 180 6
178 180 181 6
179 181 182 6
180 182 183 6
181 183 184 6
182 184 185 6
183 185 186 6
184 186 187 6
185 187 188 6
186 188 189 6
187 189 190 6
188 190 191 6
189 191 192 6
190 192 193 6
191 193 194 6
192 194 195 6
193 195 196 6
194 196 197 6
195 197 198 6
196 198 199 6
197 199 200 6
198 200 201 6
199 201 202 6
200 202 203 6
201 203 204 6
202 204 205 6
203 205 206 6
204 206 207 6
205 207 208 6
206 208 209 6
207 209 210 6
208 210 211 6
209 211 212 6
210 212 213 6
211 214 215 0
212 215 216 0
213 216 217 0
214 217 218 0
215 218 219 0
216 219 220 0
217 220 221 0
218 221 222 0
219 222 223 0
220 223 224 0
221 224 225 0
222 225 226 0
223 226 227 0
224 227 228 0
225 228 229 0
226 229 230 0
227 230 231 0
228 231 232 0
229 232 233 0
230 233 234 0
231 234 235 0
232 235 236 0
233 236 237 0
234 237 238 0
235 238 239 0
236 239 240 0
237 240 241 0
238 241 242 0
239 242 243 0
240 243 244 0
241 244 245 0
242 245 246 0
243 246 247 0
244 247 248 0
245 248 249 0
246 249 250 0
247 250 251 0
248 251 252 0
249 252 253 0
250 253 254 0
251 254 255 0
252 255 256 0
253 256 257 0
254 257 258 0
255 258 259 0
256 259 260 0
257 260 261 0
258 261 262 0
259 262 263 0
260 263 264 0
261 264 265 0
262 265 266 0
263 266 267 0
264 267 268 0
265 268 269 0
266 269 270 0
267 270 271 0
268 271 272 0
269 272 273 0
270 273 274 0
271 274 275 0
272 275 276 0
273 276 277 0
274 277 278 0
275 278 279 0
276 279 280 0
277 280 281 0
278 281 282 0
279 282 283 0
280 283 284 0
281 284 285 0
282 285 286 0
283 286 287 0
284 287 288 0
285 288 289 0
286 289 290 0
287 290 291 0
288 291 292 0
289 292 293 0
290 293 294 0
291 294 295 0
292 295 296 0
293 296 297 0
294 297 298 0
295 298 299 0
296 299 300 0
297 300 301 0
298 301 302 0
299 302 303 0
300 303 304 0
301 304 305 0
302 305 306 0
303 306 307 0
304 307 308 0
305 308 309 0
306 309 310 0
307 310 311 0
308 311 312 0
309 313 314 0
310 314 315 0
311 315 316 0
312 316 317 0
313 317 318 0
314 318 319 0
315 319 320 0
316 320 321 0
317 321 322 0
318 322 323 0
319 323 324 0
320 324 325 0
321 325 326 0
322 326 327 0
323 327 328 0
324 328 329 0
325 329 330 0
326 330 331 0
327 331 332 0
328 332 333 0
329 333 334 0
330 334 335 0
331 335 336 0
332 336 337 0
333 337 338 0
334 338 339 0
335 339 340 0
336 340 341 0
337 341 342 0
338 342 343 0
339 343 344 0
340 344 345 0
341 345 346 0
342 346 347 0
343 347 348 0
344 348 349 0
345 349 350 0
346 350 351 0
347 351 352 0
348 352 353 0
349 353 354 0
350 354 355 0
351 355 356 0
352 356 357 0
353 357 358 0
354 358 359 0
355 359 360 0
356 360 361 0
357 361 362 0
358 362 363 0
359 363 364 0
360 364 365 0
361 365 366 0
362 366 367 0
363 367 368 0
364 368 369 0
365 369 370 0
366 370 371 0
367 371 372 0
368 372 373 0
369 373 374 0
370 374 375 0
371 375 376 0
372 376 377 0
373 377 378 0
374 378 379 0
375 379 380 0
376 380 381 0
377 381 382 0
378 383 384 0
379 384 385 0
380 385 386 0
381 386 387 0
382 387 388 0
383 388 389 0
384 389 390 0
385 390 391 0
386 391 392 0
387 392 393 0
388 393 394 0
389 394 395 0
390 395 396 0
391 396 397 0
392 397 398 0
393 398 399 0
394 399 400 0
395 400 401 0
396 401 402 0
397 402 403 0
398 403 404 0
399 404 405 0
400 405 406 0
401 406 407 0
402 407 408 0
403 408 409 0
404 409 410 0
405 410 411 0
406 411 412 0
407 412 413 0
408 413 414 0
409 414 415 0
410 415 416 0
411 416 417 0
412 417 418 0
413 418 419 0
414 419 420 0
415 420 421 0
416 421 422 0
417 422 423 0
418 423 424 0
419 424 425 0
420 425 426 0
421 426 427 0
422 427 428 0
423 428 429 0
424 429 430 0
425 430 431 0
426 431 432 0
427 432 433 0
428 433 434 0
429 434 435 0
430 435 436 0
431 436 437 0
432 437 438 0
433 438 439 0
434 439 440 0
435 440 441 0
436 441 442 0
437 442 443 0
438 443 444 0
439 444 445 0
440 445 446 0
441 446 447 0
442 447 448 0
443 448 449 0
444 449 450 0
445 450 451 0
446 451 452 0
447 452 453 0
448 453 454 0
449 454 455 0
450 455 456 0
451 456 457 0
452 457 458 0
453 458 459 0
454 459 460 0
455 460 461 0
456 461 462 0
457 462 463 0
458 463 464 0
459 464 465 0
460 465 466 0
461 466 467 0
462 467 468 0
463 468 469 0
464 469 470 0
465 470 471 0
466 471 472 0
467 472 473 0
468 473 474 0
469 474 475 0
470 475 476 0
471 476 477 0
472 477 478 0
473 478 479 0
474 479 480 0
475 480 481 0
476 482 483 0
477 483 484 0
478 484 485 0
479 485 486 0
480 486 487 0
481 487 488 0
482 488 489 0
483 489 490 0
484 490 491 0
485 491 492 0
486 492 493 0
487 493 494 0
488 494 495 0
489 495 496 0
490 496 497 0
491 497 498 0
492 498 499 0
493 499 500 0
494 500 501 0
495 501 502 0
496 502 503 0
497 503 504 0
498 504 505 0
499 505 506 0
500 506 507 0
501 507 508 0
502 508 509 0
503 509 510 0
504 510 511 0
505 511 512 0
506 512 513 0
507 513 514 0
508 514 515 0
509 515 516 0
510 516 517 0
511 517 518 0
512 518 519 0
513 519 520 0
514 520 521 0
515 521 522 0
516 522 523 0
517 523 524 0
518 524 525 0
519 525 526 0
520 526 527 0
521 527 528 0
522 528 529 0
523 529 530 0
524 530 531 0
525 531 532 0
526 532 533 0
527 533 534 0
528 534 535 0
529 535 536 0
530 536 537 0
531 537 538 0
532 538 539 0
533 539 540 0
534 540 541 0
535 541 542 0
536 542 543 0
537 543 544 0
538 544 545 0
539 545 546 0
540 546 547 0
541 547 548 0
542 548 549 0
543 549 550 0
544 550 551 0
545 551 552 0
546 552 553 0
547 553 554 0
548 554 555 0
549 555 556 0
550 556 557 0
551 557 558 0
552 558 559 0
553 559 560 0
554 560 561 0
555 561 562 0
556 562 563 0
557 563 564 0
558 564 565 0
559 565 566 0
560 566 567 0
561 567 568 0
562 568 569 0
563 569 570 0
564 570 571 0
565 571 572 0
566 572 573 0
567 573 574 0
568 574 575 0
569 575 576 0
570 576 577 0
571 577 578 0
572 578 579 0
573 579 580 0
574 581 582 0
575 582 583 0
576 583 584 0
577 584 585 0
578 585 586 0
579 586 587 0
580 587 588 0
581 588 589 0
582 589 590 0
583 590 591 0
584 591 592 0
585 592 593 0
586 593 594 0
587 594 595 0
588 595 596 0
589 596 597 0
590 597 598 0
591 598 599 0
592 599 600 0
593 600 601 0
594 601 602 0
595 602 603 0
596 603 604 0
597 604 605 0
598 605 606 0
599 606 607 0
600 607 608 0
601 608 609 0
602 609 610 0
603 610 611 0
604 611 612 0
605 612 613 0
606 613 614 0
607 614 615 0
608 615 616 0
609 616 617 0
610 617 618 0
611 618 619 0
612 619 620 0
613 620 621 0
614 621 622 0
615 622 623 0
616 623 624 0
617 624 625 0
618 625 626 0
619 626 627 0
620 627 628 0
621 628 629 0
622 629 630 0
623 630 631 0
624 631 632 0
625 632 633 0
626 633 634 0
627 634 635 0
628 635 636 0
629 636 637 0
630 637 638 0
631 638 639 0
632 639 640 0
633 640 641 0
634 641 642 0
635 642 643 0
636 643 644 0
637 644 645 0
638 645 646 0
639 646 647 0
640 647 648 0
641 648 649 0
642 649 650 0
643 650 651 0
644 651 652 0
645 652 653 0
646 653 654 0
647 654 655 0
648 655 656 0
649 656 657 0
650 657 658 0
651 658 659 0
652 659 660 0
653 660 661 0
654 661 662 0
655 662 663 0
656 663 664 0
657 664 665 0
658 665 666 0
659 666 667 0
660 667 668 0
661 668 669 0
662 669 670 0
663 670 671 0
664 671 672 0
665 672 673 0
666 673 674 0
667 674 675 0
668 675 676 0
669 676 677 0
670 677 678 0
671 678 679 0
672 680 681 0
673 681 682 0
674 682 683 0
675 683 684 0
676 684 685 0
677 685 686 0
678 686 687 0
679 687 688 0
680 688 689 0
681 689 690 0
682 690 691 0
683 691 692 0
684 692 693 0
685 693 694 0
686 694 695 0
687 695 696 0
688 696 697 0
689 697 698 0
690 698 699 0
691 699 700 0
692 700 701 0
693 701 702 0
694 702 703 0
695 703 704 0
696 704 705 0
697 705 706 0
698 706 707 0
699 707 708 0
700 708 709 0
701 709 710 0
702 710 711 0
703 711 712 0
704 712 713 0
705 713 714 0
706 714 715 0
707 715 716 0
708 716 717 0
709 717 718 0
710 718 719 0
711 719 720 0
712 720 721 0
713 721 722 0
714 722 723 0
715 723 724 0
716 724 725 0
717 725 726 0
718 726 727 0
719 727 728 0
720 728 729 0
721 729 730 0
722 730 731 0
723 731 732 0
724 732 733 0
725 733 734 0
726 734 735 0
727 735 736 0
728 736 737 0
729 737 738 0
730 738 739 0
731 739 740 0
732 740 741 0
733 741 742 0
734 742 743 0
735 743 744 0
736 744 745 0
737 745 746 0
738 746 747 0
739 747 748 0
740 748 749 0
741 749 750 0
742 750 751 0
743 751 752 0
744 752 753 0
745 753 754 0
746 754 755 0
747 755 756 0
748 756 757 0
749 757 758 0
750 758 759 0
751 759 760 0
752 760 761 0
753 761 762 0
754 762 763 0
755 763 764 0
756 764 765 0
757 765 766 0
758 766 767 0
759 767 768 0
760 768 769 0
761 769 770 0
762 770 771 0
763 771 772 0
764 772 773 0
765 773 774 0
766 774 775 0
767 775 776 0
768 776 777 0
769 777 778 0
770 779 780 0
771 780 781 0
772 781 782 0
773 782 783 0
774 783 784 0
775 784 785 0
776 785 786 0
777 786 787 0
778 787 788 0
779 788 789 0
780 789 790 0
781 790 791 0
782 791 792 0
783 792 793 0
784 793 794 0
785 794 795 0
786 795 796 0
787 796 797 0
788 797 798 0
789 798 799 0
790 799 800 0
791 800 801 0
792 801 802 0
793 802 803 0
794 803 804 0
795 804 805 0
796 805 806 0
797 806 807 0
798 807 808 0
799 808 809 0
800 809 810 0
801 810 811 0
802 811 812 0
803 812 813 0
804 813 814 0
805 814 815 0
806 815 816 0
807 816 817 0
808 817 818 0
809 818 819 0
810 819 820 0
811 820 821 0
812 821 822 0
813 822 823 0
814 823 824 0
815 824 825 0
816 825 826 0
817 826 827 0
818 827 828 0
819 828 829 0
820 829 830 0
821 830 831 0
822 831 832 0
823 832 833 0
824 833 834 0
825 834 835 0
826 835 836 0
827 836 837 0
828 837 838 0
829 838 839 0
830 839 840 0
831 840 841 0
832 841 842 0
833 842 843 0
834 843 844 0
835 844 845 0
836 845 846 0
837 846 847 0
838 847 848 0
839 848 849 0
840 849 850 0
841 850 851 0
842 851 852 0
843 852 853 0
844 853 854 0
845 854 855 0
846 855 856 0
847 856 857 0
848 857 858 0
849 858 859 0
850 859 860 0
851 860 861 0
852 861 862 0
853 862 863 0
854 863 864 0
855 864 865 0
856 865 866 0
857 867 868 0
858 868 869 0
859 869 870 0
860 870 871 0
861 871 872 0
862 872 873 0
863 873 874 0
864 874 875 0
865 875 876 0
866 876 877 0
867 877 878 0
868 878 879 0
869 879 880 0
870 880 881 0
871 881 882 0
872 882 883 0
873 883 884 0
874 884 885 0
875 885 886 0
876 886 887 0
877 887 888 0
878 888 889 0
879 889 890 0
880 890 891 0
881 891 892 0
882 892 893 0
883 893 894 0
884 894 895 0
885 895 896 0
886 896 897 0
887 897 898 0
888 898 899 0
889 899 900 0
890 900 901 0
891 901 902 0
892 902 903 0
893 903 904 0
894 904 905 0
895 905 906 0
896 906 907 0
897 907 908 0
898 908 909 0
899 909 910 0
900 910 911 0
901 911 912 0
902 912 913 0
903 913 914 0
904 914 915 0
905 915 916 0
906 916 917 0
907 917 918 0
908 918 919 0
909 919 920 0
910 920 921 0
911 921 922 0
912 922 923 0
913 923 924 0
914 924 925 0
915 925 926 0
916 926 927 0
917 927 928 0
918 928 929 0
919 929 930 0
920 930 931 0
921 931 932 0
922 932 933 0
923 933 934 0
924 934 935 0
925 935 936 0
926 936 937 0
927 937 938 0
928 938 939 0
929 939 940 0
930 940 941 0
931 941 942 0
932 942 943 0
933 943 944 0
934 1 214 2
935 214 383 2
936 383 482 2
937 2 482 2
938 2 213 4
939 3 1 8
940 778 18 0
941 679 20 0
942 866 27 0
943 944 28 0
944 382 95 0
945 312 97 0
946 481 110 0
947 580 112 0
948 867 313 0
949 779 231 0
950 581 220 0
951 680 216 0
0
8 0
1 -6600.6 -10540.1 1 31415.9
2 -1025.9 -9507.3 1 706.858
3 -752.5 -9383 2 706.858
4 -299.7 -9217.4 3 706.858
5 584.5 -8510.3 3 31415.9
6 2371.9 -8446.1 4 706.858
7 2789.3 -8519.2 5 706.858
8 3484.8 -8422.9 5 31415.9
